<svg width="300" height="120" viewBox="0 0 300 120" fill="none" xmlns="http://www.w3.org/2000/svg">
<g clip-path="url(#clip0_1_2)">
<rect width="300" height="120" rx="3" fill="#282A36"/>
<g filter="url(#filter0_f_1_2)">
<path d="M115.86 89.9881C117.089 89.966 123.234 89.6791 124.14 89.5025C123.364 88.9287 110.038 89.2818 102.146 78.5557C100.755 76.6576 99.7203 74.6713 100.076 72.4643C101.014 66.8363 110.717 65.8432 116.895 68.3813C128.539 73.1484 137.368 88.5315 153.67 89.8998C165.637 90.893 181.033 86.1479 188.666 79.8799C188.472 79.8578 188.407 79.8357 188.342 79.8578C188.213 79.8799 188.083 79.902 187.986 79.924C177.216 82.5945 157.486 82.0648 144.419 76.6576C132.258 71.6256 127.245 63.7023 127.665 60.1932C128.248 55.4922 135.072 55.0729 139.277 55.8674C143.934 56.7281 147.169 59.7518 151.858 61.9147C156.904 64.21 162.5 64.9383 168.451 64.1879C173.27 63.592 179.577 61.4732 180.256 60.9877C179.9 60.9656 179.674 60.9656 179.448 60.9436C177.442 60.8111 175.437 60.767 173.464 60.5684C137.498 56.9268 131.773 24.4613 91.7961 22.3646C77.4678 21.6143 59.6464 24.1523 47.7116 30.0893C47.4528 30.2217 47.2264 30.3541 47 30.4865C47.0323 30.5307 47.0323 30.5527 47.0647 30.5969C47.3234 30.5969 47.5822 30.5748 47.8409 30.5527C49.8786 30.332 51.8839 30.3762 53.8892 30.6189C61.587 31.568 69.3172 35.7172 71.9694 47.5027C73.6836 55.0729 71.743 58.7145 74.5569 66.5053C80.7022 83.5215 103.99 90.2529 115.86 89.9881ZM71.3548 28.3236C71.0638 28.1029 71.0638 28.0588 70.9344 27.8822C74.848 27.3084 78.7616 26.9773 82.7722 26.8229C82.4164 30.0672 75.5919 31.5238 71.3548 28.3236ZM135.04 105.68C121.197 105.945 105.283 99.7873 95.0952 92.1289C93.6073 91.0254 89.6614 87.6707 89.0792 86.9645L89.2086 86.8762C91.3433 87.7811 97.5209 90.9813 106.933 92.8352C114.76 94.3801 122.49 94.2256 130.091 92.1068C137.433 90.0543 143.352 91.9965 144.031 92.7469C138.048 93.5856 137.53 93.718 136.269 94.4904C134.619 95.4615 134.781 97.0727 138.533 98.2865C147.007 101.023 158.909 97.6686 169.971 103.892C170.747 104.334 172.591 105.614 173.238 106.254C173.205 106.298 173.141 106.32 173.108 106.364C171.556 106.033 167.804 104.709 160.106 104.312C152.117 103.87 145.131 105.481 135.04 105.68V105.68ZM191.577 50.0629C196.881 48.9152 204.935 47.1055 213.085 49.3346C218.293 50.7691 221.559 53.4617 223.467 56.9709C224.6 59.0455 225.117 61.3188 225.117 63.3051C225.052 63.3051 224.988 63.3051 224.923 63.3272C224.858 63.2389 224.794 63.1285 224.761 63.0402C223.144 58.1848 215.09 53.3734 202.897 56.4412C186.66 60.5463 160.721 58.582 145.681 45.8475C145.454 45.6488 144.905 45.4723 145.26 45.1412C145.293 45.0971 145.94 45.2736 146.231 45.4281C152.085 48.3855 158.618 50.2615 165.734 51.2105C175.599 52.5568 183.394 51.8506 191.577 50.0629V50.0629ZM224.794 75.9955C214.314 76.0397 213.861 87.0527 191.285 90.2088C185.399 91.0254 178.768 91.224 176.763 91.1357V91.0475C177.669 90.7164 181.518 90.4736 186.369 87.3838C188.924 85.7727 191.318 84.0512 193.744 82.3297C200.051 77.8715 207.134 73.016 220.233 73.7223C227.705 74.1195 229.71 75.532 231.909 76.5252C232.006 76.5693 232.039 76.6356 232.136 76.7238C231.974 76.7238 231.909 76.7459 231.845 76.7238C229.58 76.1279 227.219 75.9955 224.794 75.9955V75.9955ZM220.815 70.6766C220.783 70.7207 220.783 70.7648 220.751 70.809C211.403 69.8379 205.226 69.0654 198.595 71.6918C193.097 73.8768 188.439 76.2162 178.542 77.077C169.777 77.8273 163.955 77.6066 157.163 75.3113C157.066 75.2672 156.969 75.2231 156.839 75.1789C156.839 75.1348 156.872 75.1127 156.872 75.0686C164.925 75.9072 168.645 76.1941 174.823 73.7885C182.035 70.9414 187.792 67.9178 197.884 66.9467C207.457 66.0418 214.476 67.4984 220.815 70.6766V70.6766ZM133.875 35.4744C133.681 35.342 133.52 35.2096 133.196 34.9668C135.654 34.9668 142.802 34.702 150.468 36.8207C156.839 38.5863 160.882 41.4555 166.704 44.0818C170.294 45.693 174.273 46.1344 178.477 45.8695C179.868 45.7812 181.227 45.6047 182.617 45.4943C182.747 45.4723 182.908 45.4943 183.103 45.5605C182.908 45.6488 182.714 45.7592 182.52 45.8254C179.9 46.7082 177.119 47.2158 174.24 47.3924C165.799 47.9662 157.971 46.5758 150.5 43.9936C144.258 41.8086 138.727 38.9395 133.875 35.4744V35.4744ZM254 88.09C252.868 88.7742 246.658 90.6502 240.189 89.2598C236.211 88.399 233.882 85.9713 229.969 83.9408C226.734 82.2635 223.209 82.1973 220.88 82.0869C221.074 81.9104 221.171 81.8221 221.268 81.7779C226.055 79.7475 231.133 79.0854 236.567 80.3434C240.61 81.2703 242.777 83.3229 246.399 85.6844C249.892 87.9797 253.191 87.8693 253.871 88.0018C253.903 87.9797 253.935 88.0018 254 88.09V88.09ZM185.27 118.326C185.981 118.591 185.787 118.657 185.755 118.768C179.771 118.459 174.79 117.09 170.618 113.868C163.567 108.417 157.13 107.711 154.899 107.313C155.06 107.269 155.158 107.225 155.255 107.225C159.492 107.247 163.696 107.379 167.836 108.086C176.019 109.498 179.157 113.692 181.291 115.877C182.326 116.936 183.652 117.708 185.27 118.326V118.326Z" fill="url(#paint0_linear_1_2)" fill-opacity="0.3"/>
</g>
<path d="M18.488 43V35.836L17.336 36.412V35.572L18.74 34.744H19.388V43H18.488Z" fill="#6272A4"/>
<path d="M18.428 57.208H21.68V58H17.552V57.052C17.552 56.356 17.568 55.86 17.6 55.564C17.632 55.26 17.716 55.012 17.852 54.82C17.988 54.62 18.22 54.428 18.548 54.244C18.828 54.068 19.348 53.756 20.108 53.308C20.388 53.148 20.568 52.968 20.648 52.768C20.736 52.568 20.78 52.26 20.78 51.844C20.78 51.444 20.74 51.148 20.66 50.956C20.588 50.756 20.456 50.62 20.264 50.548C20.08 50.476 19.8 50.44 19.424 50.44C18.976 50.44 18.392 50.484 17.672 50.572V49.84C17.912 49.784 18.216 49.74 18.584 49.708C18.96 49.668 19.316 49.648 19.652 49.648C20.1 49.648 20.464 49.696 20.744 49.792C21.032 49.88 21.26 50.076 21.428 50.38C21.596 50.684 21.68 51.136 21.68 51.736C21.68 52.192 21.644 52.56 21.572 52.84C21.508 53.112 21.4 53.336 21.248 53.512C21.104 53.68 20.9 53.84 20.636 53.992L18.92 54.988C18.728 55.1 18.6 55.228 18.536 55.372C18.488 55.476 18.456 55.62 18.44 55.804C18.432 55.98 18.428 56.248 18.428 56.608V57.208Z" fill="#6272A4"/>
<path d="M19.172 73.096C18.908 73.096 18.608 73.076 18.272 73.036C17.936 73.004 17.632 72.96 17.36 72.904V72.172C18.08 72.26 18.656 72.304 19.088 72.304C19.448 72.304 19.732 72.268 19.94 72.196C20.148 72.124 20.304 71.98 20.408 71.764C20.52 71.548 20.576 71.224 20.576 70.792C20.576 70.208 20.492 69.8 20.324 69.568C20.156 69.328 19.868 69.208 19.46 69.208H18.38V68.428H19.46C19.788 68.428 20.044 68.324 20.228 68.116C20.412 67.9 20.504 67.508 20.504 66.94C20.504 66.508 20.456 66.188 20.36 65.98C20.264 65.764 20.112 65.62 19.904 65.548C19.696 65.476 19.396 65.44 19.004 65.44C18.772 65.44 18.504 65.456 18.2 65.488C17.904 65.512 17.636 65.544 17.396 65.584V64.84C17.652 64.784 17.948 64.74 18.284 64.708C18.62 64.668 18.92 64.648 19.184 64.648C19.744 64.648 20.184 64.724 20.504 64.876C20.832 65.02 21.064 65.252 21.2 65.572C21.344 65.884 21.416 66.3 21.416 66.82C21.416 67.404 21.324 67.848 21.14 68.152C20.964 68.456 20.7 68.656 20.348 68.752V68.8C20.724 68.888 21.004 69.084 21.188 69.388C21.38 69.684 21.476 70.152 21.476 70.792C21.476 71.32 21.412 71.748 21.284 72.076C21.164 72.404 20.936 72.656 20.6 72.832C20.264 73.008 19.788 73.096 19.172 73.096Z" fill="#6272A4"/>
<path d="M20.444 88V86.044H17.384V85.336L19.568 79.744H20.516L18.332 85.252H20.456L20.624 82.192H21.344V85.252H22.208V86.044H21.344V88H20.444Z" fill="#6272A4"/>
<path d="M17.648 102.172C18.368 102.26 18.936 102.304 19.352 102.304C19.768 102.304 20.084 102.252 20.3 102.148C20.516 102.044 20.664 101.872 20.744 101.632C20.824 101.392 20.864 101.04 20.864 100.576C20.864 100.08 20.82 99.716 20.732 99.484C20.644 99.252 20.488 99.096 20.264 99.016C20.048 98.936 19.708 98.896 19.244 98.896C18.804 98.896 18.292 98.952 17.708 99.064V94.744H21.332V95.536H18.56V98.224C18.904 98.152 19.304 98.116 19.76 98.116C20.32 98.116 20.744 98.204 21.032 98.38C21.32 98.548 21.512 98.8 21.608 99.136C21.712 99.464 21.764 99.908 21.764 100.468C21.764 101.132 21.7 101.652 21.572 102.028C21.452 102.396 21.224 102.668 20.888 102.844C20.56 103.012 20.084 103.096 19.46 103.096C19.196 103.096 18.892 103.076 18.548 103.036C18.212 103.004 17.912 102.96 17.648 102.904V102.172Z" fill="#6272A4"/>
<path d="M48.5898 57.8535C48.1667 57.9512 47.7109 58 47.2227 58C45.3997 58 44.4883 57.113 44.4883 55.3389C44.4883 53.695 45.3997 52.873 47.2227 52.873C47.7109 52.873 48.1667 52.9219 48.5898 53.0195V53.752C48.1667 53.6543 47.6947 53.6055 47.1738 53.6055C45.9857 53.6055 45.3916 54.1833 45.3916 55.3389C45.3916 56.6247 45.9857 57.2676 47.1738 57.2676C47.6947 57.2676 48.1667 57.2188 48.5898 57.1211V57.8535ZM50.4014 55.417C50.4014 56.6507 50.9141 57.2676 51.9395 57.2676C52.9648 57.2676 53.4775 56.6507 53.4775 55.417C53.4775 54.2093 52.9648 53.6055 51.9395 53.6055C50.9141 53.6055 50.4014 54.2093 50.4014 55.417ZM49.498 55.4365C49.498 53.7275 50.3118 52.873 51.9395 52.873C53.5671 52.873 54.3809 53.7275 54.3809 55.4365C54.3809 57.1423 53.5671 57.9951 51.9395 57.9951C50.3184 57.9951 49.5046 57.1423 49.498 55.4365ZM55.6016 58V52.873H56.2119L56.373 53.5273C56.8971 53.0911 57.4733 52.873 58.1016 52.873C59.3809 52.873 60.0205 53.5094 60.0205 54.7822V58H59.1172V54.7676C59.1172 54.0059 58.738 53.625 57.9795 53.625C57.4619 53.625 56.9704 53.8415 56.5049 54.2744V58H55.6016ZM61.4414 57.7559V56.9746C62.0436 57.1699 62.6523 57.2676 63.2676 57.2676C64.0846 57.2676 64.4932 57.0234 64.4932 56.5352C64.4932 56.0794 64.2083 55.8516 63.6387 55.8516H62.9062C61.7995 55.8516 61.2461 55.347 61.2461 54.3379C61.2461 53.3613 61.9574 52.873 63.3799 52.873C63.9919 52.873 64.599 52.9544 65.2012 53.1172V53.8984C64.599 53.7031 63.9919 53.6055 63.3799 53.6055C62.527 53.6055 62.1006 53.8496 62.1006 54.3379C62.1006 54.7936 62.3691 55.0215 62.9062 55.0215H63.6387C64.8105 55.0215 65.3965 55.526 65.3965 56.5352C65.3965 57.5117 64.6868 58 63.2676 58C62.6523 58 62.0436 57.9186 61.4414 57.7559ZM66.6172 52.043H67.1836L67.3789 52.873H68.7656V53.6055H67.5205V56.5498C67.5205 57.0283 67.7272 57.2676 68.1406 57.2676H68.7656V58H67.9062C67.0469 58 66.6172 57.5394 66.6172 56.6182V52.043Z" fill="#FF79C6"/>
<path d="M74.7324 58V52.873H75.3428L75.5039 53.5273C76.028 53.0911 76.6042 52.873 77.2324 52.873C78.5117 52.873 79.1514 53.5094 79.1514 54.7822V58H78.248V54.7676C78.248 54.0059 77.8688 53.625 77.1104 53.625C76.5928 53.625 76.1012 53.8415 75.6357 54.2744V58H74.7324ZM80.377 56.4521C80.377 55.4007 81.0703 54.875 82.457 54.875C82.903 54.875 83.349 54.9076 83.7949 54.9727V54.4893C83.7949 53.9001 83.3343 53.6055 82.4131 53.6055C81.8857 53.6055 81.3454 53.6868 80.792 53.8496V53.1172C81.3454 52.9544 81.8857 52.873 82.4131 52.873C83.9365 52.873 84.6982 53.4036 84.6982 54.4648V58H84.1904L83.8779 57.4922C83.3669 57.8307 82.8102 58 82.208 58C80.9873 58 80.377 57.484 80.377 56.4521ZM82.457 55.6074C81.6725 55.6074 81.2803 55.8841 81.2803 56.4375C81.2803 56.9909 81.5895 57.2676 82.208 57.2676C82.833 57.2676 83.362 57.1016 83.7949 56.7695V55.7051C83.349 55.64 82.903 55.6074 82.457 55.6074ZM86.168 58V52.873H86.7783L86.9297 53.5176C87.4212 53.0879 87.9567 52.873 88.5361 52.873C89.2783 52.873 89.7845 53.1074 90.0547 53.5762C90.6113 53.1074 91.1761 52.873 91.749 52.873C92.9274 52.873 93.5166 53.5225 93.5166 54.8213V58H92.6133V54.7725C92.6133 54.0075 92.291 53.625 91.6465 53.625C91.1647 53.625 90.7139 53.8464 90.2939 54.2891V58H89.3906V54.7871C89.3906 54.0124 89.0716 53.625 88.4336 53.625C87.9258 53.625 87.4717 53.8464 87.0713 54.2891V58H86.168ZM97.1006 52.873C98.5589 52.873 99.2881 53.5941 99.2881 55.0361C99.2881 55.2412 99.2734 55.4609 99.2441 55.6953H95.6455C95.6455 56.7435 96.2575 57.2676 97.4814 57.2676C98.0641 57.2676 98.5817 57.2025 99.0342 57.0723V57.8047C98.5817 57.9349 98.0316 58 97.3838 58C95.6227 58 94.7422 57.126 94.7422 55.3779C94.7422 53.708 95.5283 52.873 97.1006 52.873ZM95.6455 54.9434H98.4189C98.3994 54.0449 97.96 53.5957 97.1006 53.5957C96.1891 53.5957 95.7041 54.0449 95.6455 54.9434Z" fill="#F8F8F2"/>
<path d="M108.15 55.8027V56.5352H104.488V55.8027H108.15ZM108.15 54.3379V55.0703H104.488V54.3379H108.15Z" fill="#FF79C6"/>
<path d="M114.88 51.0176L114.147 53.1416H113.244L113.977 51.0176H114.88ZM118.273 58V51.0176H121.252C122.58 51.0176 123.244 51.5596 123.244 52.6436C123.244 53.4378 122.811 54.0059 121.945 54.3477C122.87 54.5202 123.332 55.0492 123.332 55.9346C123.332 57.3115 122.604 58 121.149 58H118.273ZM121.096 57.2676C121.929 57.2676 122.346 56.8444 122.346 55.998C122.346 55.1745 121.787 54.7627 120.671 54.7627H120.28V54.1719C121.615 53.9928 122.282 53.5111 122.282 52.7266C122.282 52.0755 121.911 51.75 121.169 51.75H119.177V57.2676H121.096ZM124.426 56.4521C124.426 55.4007 125.119 54.875 126.506 54.875C126.952 54.875 127.398 54.9076 127.844 54.9727V54.4893C127.844 53.9001 127.383 53.6055 126.462 53.6055C125.935 53.6055 125.394 53.6868 124.841 53.8496V53.1172C125.394 52.9544 125.935 52.873 126.462 52.873C127.985 52.873 128.747 53.4036 128.747 54.4648V58H128.239L127.927 57.4922C127.416 57.8307 126.859 58 126.257 58C125.036 58 124.426 57.484 124.426 56.4521ZM126.506 55.6074C125.721 55.6074 125.329 55.8841 125.329 56.4375C125.329 56.9909 125.638 57.2676 126.257 57.2676C126.882 57.2676 127.411 57.1016 127.844 56.7695V55.7051C127.398 55.64 126.952 55.6074 126.506 55.6074ZM131.218 52.873V58H130.314V52.873H131.218ZM131.218 51.0176V51.8721H130.314V51.0176H131.218ZM133.688 57.1064C133.985 57.2008 134.344 57.248 134.768 57.248C135.907 57.248 136.477 56.5986 136.477 55.2998C136.477 54.2028 135.961 53.6543 134.929 53.6543C134.46 53.6543 134.047 53.7422 133.688 53.918V57.1064ZM132.785 51.0176H133.688V53.1172C134.076 52.9544 134.491 52.873 134.934 52.873C136.555 52.873 137.365 53.6934 137.365 55.334C137.365 57.1113 136.514 58 134.812 58C134.076 58 133.4 57.93 132.785 57.79V51.0176ZM138.537 57.7559V56.9746C139.139 57.1699 139.748 57.2676 140.363 57.2676C141.18 57.2676 141.589 57.0234 141.589 56.5352C141.589 56.0794 141.304 55.8516 140.734 55.8516H140.002C138.895 55.8516 138.342 55.347 138.342 54.3379C138.342 53.3613 139.053 52.873 140.476 52.873C141.088 52.873 141.695 52.9544 142.297 53.1172V53.8984C141.695 53.7031 141.088 53.6055 140.476 53.6055C139.623 53.6055 139.196 53.8496 139.196 54.3379C139.196 54.7936 139.465 55.0215 140.002 55.0215H140.734C141.906 55.0215 142.492 55.526 142.492 56.5352C142.492 57.5117 141.783 58 140.363 58C139.748 58 139.139 57.9186 138.537 57.7559ZM147.302 51.0176L146.569 53.1416H145.666L146.398 51.0176H147.302Z" fill="#F1FA8C"/>
<path d="M48.5898 73.8535C48.1667 73.9512 47.7109 74 47.2227 74C45.3997 74 44.4883 73.113 44.4883 71.3389C44.4883 69.695 45.3997 68.873 47.2227 68.873C47.7109 68.873 48.1667 68.9219 48.5898 69.0195V69.752C48.1667 69.6543 47.6947 69.6055 47.1738 69.6055C45.9857 69.6055 45.3916 70.1833 45.3916 71.3389C45.3916 72.6247 45.9857 73.2676 47.1738 73.2676C47.6947 73.2676 48.1667 73.2188 48.5898 73.1211V73.8535ZM50.4014 71.417C50.4014 72.6507 50.9141 73.2676 51.9395 73.2676C52.9648 73.2676 53.4775 72.6507 53.4775 71.417C53.4775 70.2093 52.9648 69.6055 51.9395 69.6055C50.9141 69.6055 50.4014 70.2093 50.4014 71.417ZM49.498 71.4365C49.498 69.7275 50.3118 68.873 51.9395 68.873C53.5671 68.873 54.3809 69.7275 54.3809 71.4365C54.3809 73.1423 53.5671 73.9951 51.9395 73.9951C50.3184 73.9951 49.5046 73.1423 49.498 71.4365ZM55.6016 74V68.873H56.2119L56.373 69.5273C56.8971 69.0911 57.4733 68.873 58.1016 68.873C59.3809 68.873 60.0205 69.5094 60.0205 70.7822V74H59.1172V70.7676C59.1172 70.0059 58.738 69.625 57.9795 69.625C57.4619 69.625 56.9704 69.8415 56.5049 70.2744V74H55.6016ZM61.4414 73.7559V72.9746C62.0436 73.1699 62.6523 73.2676 63.2676 73.2676C64.0846 73.2676 64.4932 73.0234 64.4932 72.5352C64.4932 72.0794 64.2083 71.8516 63.6387 71.8516H62.9062C61.7995 71.8516 61.2461 71.347 61.2461 70.3379C61.2461 69.3613 61.9574 68.873 63.3799 68.873C63.9919 68.873 64.599 68.9544 65.2012 69.1172V69.8984C64.599 69.7031 63.9919 69.6055 63.3799 69.6055C62.527 69.6055 62.1006 69.8496 62.1006 70.3379C62.1006 70.7936 62.3691 71.0215 62.9062 71.0215H63.6387C64.8105 71.0215 65.3965 71.526 65.3965 72.5352C65.3965 73.5117 64.6868 74 63.2676 74C62.6523 74 62.0436 73.9186 61.4414 73.7559ZM66.6172 68.043H67.1836L67.3789 68.873H68.7656V69.6055H67.5205V72.5498C67.5205 73.0283 67.7272 73.2676 68.1406 73.2676H68.7656V74H67.9062C67.0469 74 66.6172 73.5394 66.6172 72.6182V68.043ZM98.9023 71.8027V72.5352H95.2402V71.8027H98.9023ZM98.9023 70.3379V71.0703H95.2402V70.3379H98.9023ZM136.637 71.8027V72.5352H132.975V71.8027H136.637ZM136.637 70.3379V71.0703H132.975V70.3379H136.637ZM137.613 73.7559V73.0234L141.241 71.4561L137.613 69.8496V69.1172L142.008 71.0703V71.8027L137.613 73.7559ZM182.452 72.8037V74H181.158V72.8037H182.452Z" fill="#FF79C6"/>
<path d="M74.752 73.7559V72.9746C75.3542 73.1699 75.9629 73.2676 76.5781 73.2676C77.3952 73.2676 77.8037 73.0234 77.8037 72.5352C77.8037 72.0794 77.5189 71.8516 76.9492 71.8516H76.2168C75.11 71.8516 74.5566 71.347 74.5566 70.3379C74.5566 69.3613 75.2679 68.873 76.6904 68.873C77.3024 68.873 77.9095 68.9544 78.5117 69.1172V69.8984C77.9095 69.7031 77.3024 69.6055 76.6904 69.6055C75.8376 69.6055 75.4111 69.8496 75.4111 70.3379C75.4111 70.7936 75.6797 71.0215 76.2168 71.0215H76.9492C78.1211 71.0215 78.707 71.526 78.707 72.5352C78.707 73.5117 77.9974 74 76.5781 74C75.9629 74 75.3542 73.9186 74.752 73.7559ZM79.6836 72.4521C79.6836 71.4007 80.377 70.875 81.7637 70.875C82.2096 70.875 82.6556 70.9076 83.1016 70.9727V70.4893C83.1016 69.9001 82.641 69.6055 81.7197 69.6055C81.1924 69.6055 80.652 69.6868 80.0986 69.8496V69.1172C80.652 68.9544 81.1924 68.873 81.7197 68.873C83.2432 68.873 84.0049 69.4036 84.0049 70.4648V74H83.4971L83.1846 73.4922C82.6735 73.8307 82.1169 74 81.5146 74C80.2939 74 79.6836 73.484 79.6836 72.4521ZM81.7637 71.6074C80.9792 71.6074 80.5869 71.8841 80.5869 72.4375C80.5869 72.9909 80.8962 73.2676 81.5146 73.2676C82.1396 73.2676 82.6686 73.1016 83.1016 72.7695V71.7051C82.6556 71.64 82.2096 71.6074 81.7637 71.6074ZM84.8643 68.873H85.8457L87.2959 72.877L88.7949 68.873H89.752L87.623 74.1514C87.2454 75.0824 86.679 75.6634 85.9238 75.8945L85.5771 75.2549C86.1501 75.0042 86.5667 74.5957 86.8271 74.0293L84.8643 68.873ZM104.2 67.0176C103.549 68.4889 103.224 69.9619 103.224 71.4365C103.224 72.9111 103.549 74.3841 104.2 75.8555H103.297C102.646 74.3841 102.32 72.9111 102.32 71.4365C102.32 69.9619 102.646 68.4889 103.297 67.0176H104.2ZM128.575 67.0176C129.226 68.4889 129.552 69.9619 129.552 71.4365C129.552 72.9111 129.226 74.3841 128.575 75.8555H127.672C128.323 74.3841 128.648 72.9111 128.648 71.4365C128.648 69.9619 128.323 68.4889 127.672 67.0176H128.575ZM149.527 73.8535C149.104 73.9512 148.648 74 148.16 74C146.337 74 145.426 73.113 145.426 71.3389C145.426 69.695 146.337 68.873 148.16 68.873C148.648 68.873 149.104 68.9219 149.527 69.0195V69.752C149.104 69.6543 148.632 69.6055 148.111 69.6055C146.923 69.6055 146.329 70.1833 146.329 71.3389C146.329 72.6247 146.923 73.2676 148.111 73.2676C148.632 73.2676 149.104 73.2188 149.527 73.1211V73.8535ZM151.339 71.417C151.339 72.6507 151.852 73.2676 152.877 73.2676C153.902 73.2676 154.415 72.6507 154.415 71.417C154.415 70.2093 153.902 69.6055 152.877 69.6055C151.852 69.6055 151.339 70.2093 151.339 71.417ZM150.436 71.4365C150.436 69.7275 151.249 68.873 152.877 68.873C154.505 68.873 155.318 69.7275 155.318 71.4365C155.318 73.1423 154.505 73.9951 152.877 73.9951C151.256 73.9951 150.442 73.1423 150.436 71.4365ZM156.539 74V68.873H157.149L157.311 69.5273C157.835 69.0911 158.411 68.873 159.039 68.873C160.318 68.873 160.958 69.5094 160.958 70.7822V74H160.055V70.7676C160.055 70.0059 159.675 69.625 158.917 69.625C158.399 69.625 157.908 69.8415 157.442 70.2744V74H156.539ZM162.379 73.7559V72.9746C162.981 73.1699 163.59 73.2676 164.205 73.2676C165.022 73.2676 165.431 73.0234 165.431 72.5352C165.431 72.0794 165.146 71.8516 164.576 71.8516H163.844C162.737 71.8516 162.184 71.347 162.184 70.3379C162.184 69.3613 162.895 68.873 164.317 68.873C164.929 68.873 165.536 68.9544 166.139 69.1172V69.8984C165.536 69.7031 164.929 69.6055 164.317 69.6055C163.465 69.6055 163.038 69.8496 163.038 70.3379C163.038 70.7936 163.307 71.0215 163.844 71.0215H164.576C165.748 71.0215 166.334 71.526 166.334 72.5352C166.334 73.5117 165.624 74 164.205 74C163.59 74 162.981 73.9186 162.379 73.7559ZM168.214 71.417C168.214 72.6507 168.727 73.2676 169.752 73.2676C170.777 73.2676 171.29 72.6507 171.29 71.417C171.29 70.2093 170.777 69.6055 169.752 69.6055C168.727 69.6055 168.214 70.2093 168.214 71.417ZM167.311 71.4365C167.311 69.7275 168.124 68.873 169.752 68.873C171.38 68.873 172.193 69.7275 172.193 71.4365C172.193 73.1423 171.38 73.9951 169.752 73.9951C168.131 73.9951 167.317 73.1423 167.311 71.4365ZM174.366 67.0176V74H173.463V67.0176H174.366ZM177.999 68.873C179.457 68.873 180.187 69.5941 180.187 71.0361C180.187 71.2412 180.172 71.4609 180.143 71.6953H176.544C176.544 72.7435 177.156 73.2676 178.38 73.2676C178.963 73.2676 179.48 73.2025 179.933 73.0723V73.8047C179.48 73.9349 178.93 74 178.282 74C176.521 74 175.641 73.126 175.641 71.3779C175.641 69.708 176.427 68.873 177.999 68.873ZM176.544 70.9434H179.317C179.298 70.0449 178.858 69.5957 177.999 69.5957C177.088 69.5957 176.603 70.0449 176.544 70.9434ZM199.444 67.0176C198.793 68.4889 198.468 69.9619 198.468 71.4365C198.468 72.9111 198.793 74.3841 199.444 75.8555H198.541C197.89 74.3841 197.564 72.9111 197.564 71.4365C197.564 69.9619 197.89 68.4889 198.541 67.0176H199.444ZM223.819 67.0176C224.47 68.4889 224.796 69.9619 224.796 71.4365C224.796 72.9111 224.47 74.3841 223.819 75.8555H222.916C223.567 74.3841 223.893 72.9111 223.893 71.4365C223.893 69.9619 223.567 68.4889 222.916 67.0176H223.819Z" fill="white"/>
<path d="M104.864 68.873H105.777L106.686 72.8916L108.019 68.873H108.834L110.26 72.8916L111.08 68.873H112.037L110.699 74H109.874L108.404 70.167L107.008 74H106.163L104.864 68.873ZM113.604 71.417C113.604 72.6507 114.117 73.2676 115.143 73.2676C116.168 73.2676 116.681 72.6507 116.681 71.417C116.681 70.2093 116.168 69.6055 115.143 69.6055C114.117 69.6055 113.604 70.2093 113.604 71.417ZM112.701 71.4365C112.701 69.7275 113.515 68.873 115.143 68.873C116.77 68.873 117.584 69.7275 117.584 71.4365C117.584 73.1423 116.77 73.9951 115.143 73.9951C113.521 73.9951 112.708 73.1423 112.701 71.4365ZM118.805 74V68.873H119.415L119.576 69.5273C120.025 69.0911 120.566 68.873 121.197 68.873V69.625C120.585 69.625 120.089 69.8415 119.708 70.2744V74H118.805ZM125.548 69.918C125.183 69.7422 124.767 69.6543 124.298 69.6543C123.266 69.6543 122.75 70.2028 122.75 71.2998C122.75 72.5986 123.266 73.248 124.298 73.248C124.767 73.248 125.183 73.1846 125.548 73.0576V69.918ZM126.451 73.6924C125.829 73.8975 125.063 74 124.151 74C122.625 74 121.861 73.1113 121.861 71.334C121.861 69.6934 122.672 68.873 124.293 68.873C124.736 68.873 125.154 68.9544 125.548 69.1172V67.0176H126.451V73.6924ZM200.108 68.873H201.021L201.93 72.8916L203.263 68.873H204.078L205.504 72.8916L206.324 68.873H207.281L205.943 74H205.118L203.648 70.167L202.252 74H201.407L200.108 68.873ZM208.849 71.417C208.849 72.6507 209.361 73.2676 210.387 73.2676C211.412 73.2676 211.925 72.6507 211.925 71.417C211.925 70.2093 211.412 69.6055 210.387 69.6055C209.361 69.6055 208.849 70.2093 208.849 71.417ZM207.945 71.4365C207.945 69.7275 208.759 68.873 210.387 68.873C212.014 68.873 212.828 69.7275 212.828 71.4365C212.828 73.1423 212.014 73.9951 210.387 73.9951C208.766 73.9951 207.952 73.1423 207.945 71.4365ZM214.049 74V68.873H214.659L214.82 69.5273C215.27 69.0911 215.81 68.873 216.441 68.873V69.625C215.829 69.625 215.333 69.8415 214.952 70.2744V74H214.049ZM220.792 69.918C220.427 69.7422 220.011 69.6543 219.542 69.6543C218.51 69.6543 217.994 70.2028 217.994 71.2998C217.994 72.5986 218.51 73.248 219.542 73.248C220.011 73.248 220.427 73.1846 220.792 73.0576V69.918ZM221.695 73.6924C221.074 73.8975 220.307 74 219.396 74C217.869 74 217.105 73.1113 217.105 71.334C217.105 69.6934 217.916 68.873 219.537 68.873C219.98 68.873 220.398 68.9544 220.792 69.1172V67.0176H221.695V73.6924Z" fill="#FFC022"/>
<path d="M184.63 67.0176V74H183.727V67.0176H184.63ZM186.808 71.417C186.808 72.6507 187.32 73.2676 188.346 73.2676C189.371 73.2676 189.884 72.6507 189.884 71.417C189.884 70.2093 189.371 69.6055 188.346 69.6055C187.32 69.6055 186.808 70.2093 186.808 71.417ZM185.904 71.4365C185.904 69.7275 186.718 68.873 188.346 68.873C189.973 68.873 190.787 69.7275 190.787 71.4365C190.787 73.1423 189.973 73.9951 188.346 73.9951C186.725 73.9951 185.911 73.1423 185.904 71.4365ZM195.436 69.7422C195.126 69.6641 194.744 69.625 194.288 69.625C193.198 69.625 192.652 70.2158 192.652 71.3975C192.652 72.6117 193.168 73.2188 194.2 73.2188C194.669 73.2188 195.081 73.1309 195.436 72.9551V69.7422ZM196.339 74C196.339 75.237 195.553 75.8555 193.98 75.8555C193.349 75.8555 192.789 75.7741 192.301 75.6113V74.8789C192.799 75.0417 193.362 75.123 193.99 75.123C194.954 75.123 195.436 74.7487 195.436 74V73.7559C195.051 73.9186 194.638 74 194.195 74C192.574 74 191.764 73.1357 191.764 71.4072C191.764 69.7178 192.618 68.873 194.327 68.873C195.021 68.873 195.691 68.943 196.339 69.083V74Z" fill="#BD93F9"/>
<path d="M45.123 44H44.1221L47.6621 37.0176H48.6631L45.123 44ZM50.3867 37.0176H51.1484L51.002 38.1504L52.0225 37.6572L52.2568 38.375L51.1436 38.585L51.9199 39.415L51.3193 39.8643L50.7676 38.8633L50.2158 39.8594L49.6104 39.4248L50.3965 38.5898L49.2734 38.3848L49.5078 37.6523L50.5381 38.1553L50.3867 37.0176ZM59.3564 37.0176V43.2676H63.0088V44H58.4531V37.0176H59.3564ZM64.6494 41.417C64.6494 42.6507 65.1621 43.2676 66.1875 43.2676C67.2129 43.2676 67.7256 42.6507 67.7256 41.417C67.7256 40.2093 67.2129 39.6055 66.1875 39.6055C65.1621 39.6055 64.6494 40.2093 64.6494 41.417ZM63.7461 41.4365C63.7461 39.7275 64.5599 38.873 66.1875 38.873C67.8151 38.873 68.6289 39.7275 68.6289 41.4365C68.6289 43.1423 67.8151 43.9951 66.1875 43.9951C64.5664 43.9951 63.7526 43.1423 63.7461 41.4365ZM69.1172 38.873H70.0938L71.5635 42.8916L73.0234 38.873H74L71.915 44H71.0752L69.1172 38.873ZM76.8467 38.873C78.305 38.873 79.0342 39.5941 79.0342 41.0361C79.0342 41.2412 79.0195 41.4609 78.9902 41.6953H75.3916C75.3916 42.7435 76.0036 43.2676 77.2275 43.2676C77.8102 43.2676 78.3278 43.2025 78.7803 43.0723V43.8047C78.3278 43.9349 77.7777 44 77.1299 44C75.3688 44 74.4883 43.126 74.4883 41.3779C74.4883 39.708 75.2744 38.873 76.8467 38.873ZM75.3916 40.9434H78.165C78.1455 40.0449 77.7061 39.5957 76.8467 39.5957C75.9352 39.5957 75.4502 40.0449 75.3916 40.9434ZM86.5488 43.8535C86.1257 43.9512 85.6699 44 85.1816 44C83.3587 44 82.4473 43.113 82.4473 41.3389C82.4473 39.695 83.3587 38.873 85.1816 38.873C85.6699 38.873 86.1257 38.9219 86.5488 39.0195V39.752C86.1257 39.6543 85.6536 39.6055 85.1328 39.6055C83.9447 39.6055 83.3506 40.1833 83.3506 41.3389C83.3506 42.6247 83.9447 43.2676 85.1328 43.2676C85.6536 43.2676 86.1257 43.2188 86.5488 43.1211V43.8535ZM88.3604 41.417C88.3604 42.6507 88.873 43.2676 89.8984 43.2676C90.9238 43.2676 91.4365 42.6507 91.4365 41.417C91.4365 40.2093 90.9238 39.6055 89.8984 39.6055C88.873 39.6055 88.3604 40.2093 88.3604 41.417ZM87.457 41.4365C87.457 39.7275 88.2708 38.873 89.8984 38.873C91.526 38.873 92.3398 39.7275 92.3398 41.4365C92.3398 43.1423 91.526 43.9951 89.8984 43.9951C88.2773 43.9951 87.4635 43.1423 87.457 41.4365ZM97.0029 39.918C96.6383 39.7422 96.2217 39.6543 95.7529 39.6543C94.721 39.6543 94.2051 40.2028 94.2051 41.2998C94.2051 42.5986 94.721 43.248 95.7529 43.248C96.2217 43.248 96.6383 43.1846 97.0029 43.0576V39.918ZM97.9062 43.6924C97.2845 43.8975 96.5179 44 95.6064 44C94.0798 44 93.3164 43.1113 93.3164 41.334C93.3164 39.6934 94.127 38.873 95.748 38.873C96.1908 38.873 96.609 38.9544 97.0029 39.1172V37.0176H97.9062V43.6924ZM100.372 38.873V44H99.4688V38.873H100.372ZM100.372 37.0176V37.8721H99.4688V37.0176H100.372ZM101.939 44V38.873H102.55L102.711 39.5273C103.235 39.0911 103.811 38.873 104.439 38.873C105.719 38.873 106.358 39.5094 106.358 40.7822V44H105.455V40.7676C105.455 40.0059 105.076 39.625 104.317 39.625C103.8 39.625 103.308 39.8415 102.843 40.2744V44H101.939ZM111.256 39.7422C110.947 39.6641 110.564 39.625 110.108 39.625C109.018 39.625 108.473 40.2158 108.473 41.3975C108.473 42.6117 108.989 43.2188 110.021 43.2188C110.489 43.2188 110.901 43.1309 111.256 42.9551V39.7422ZM112.159 44C112.159 45.237 111.373 45.8555 109.801 45.8555C109.169 45.8555 108.609 45.7741 108.121 45.6113V44.8789C108.619 45.0417 109.182 45.123 109.811 45.123C110.774 45.123 111.256 44.7487 111.256 44V43.7559C110.872 43.9186 110.458 44 110.016 44C108.395 44 107.584 43.1357 107.584 41.4072C107.584 39.7178 108.438 38.873 110.147 38.873C110.841 38.873 111.511 38.943 112.159 39.083V44ZM119.381 37.0176H120.143L119.996 38.1504L121.017 37.6572L121.251 38.375L120.138 38.585L120.914 39.415L120.313 39.8643L119.762 38.8633L119.21 39.8594L118.604 39.4248L119.391 38.5898L118.268 38.3848L118.502 37.6523L119.532 38.1553L119.381 37.0176ZM122.857 44H121.856L125.396 37.0176H126.397L122.857 44Z" fill="#6272A4"/>
<path d="M44.6836 88.7559V87.9746C45.2858 88.1699 45.8945 88.2676 46.5098 88.2676C47.3268 88.2676 47.7354 88.0234 47.7354 87.5352C47.7354 87.0794 47.4505 86.8516 46.8809 86.8516H46.1484C45.0417 86.8516 44.4883 86.347 44.4883 85.3379C44.4883 84.3613 45.1995 83.873 46.6221 83.873C47.234 83.873 47.8411 83.9544 48.4434 84.1172V84.8984C47.8411 84.7031 47.234 84.6055 46.6221 84.6055C45.7692 84.6055 45.3428 84.8496 45.3428 85.3379C45.3428 85.7936 45.6113 86.0215 46.1484 86.0215H46.8809C48.0527 86.0215 48.6387 86.526 48.6387 87.5352C48.6387 88.5117 47.929 89 46.5098 89C45.8945 89 45.2858 88.9186 44.6836 88.7559ZM49.6152 87.4521C49.6152 86.4007 50.3086 85.875 51.6953 85.875C52.1413 85.875 52.5872 85.9076 53.0332 85.9727V85.4893C53.0332 84.9001 52.5726 84.6055 51.6514 84.6055C51.124 84.6055 50.5837 84.6868 50.0303 84.8496V84.1172C50.5837 83.9544 51.124 83.873 51.6514 83.873C53.1748 83.873 53.9365 84.4036 53.9365 85.4648V89H53.4287L53.1162 88.4922C52.6051 88.8307 52.0485 89 51.4463 89C50.2256 89 49.6152 88.484 49.6152 87.4521ZM51.6953 86.6074C50.9108 86.6074 50.5186 86.8841 50.5186 87.4375C50.5186 87.9909 50.8278 88.2676 51.4463 88.2676C52.0713 88.2676 52.6003 88.1016 53.0332 87.7695V86.7051C52.5872 86.64 52.1413 86.6074 51.6953 86.6074ZM54.7959 83.873H55.7773L57.2275 87.877L58.7266 83.873H59.6836L57.5547 89.1514C57.1771 90.0824 56.6107 90.6634 55.8555 90.8945L55.5088 90.2549C56.0817 90.0042 56.4984 89.5957 56.7588 89.0293L54.7959 83.873ZM118.277 89V83.873H118.888L119.049 84.5273C119.573 84.0911 120.149 83.873 120.777 83.873C122.057 83.873 122.696 84.5094 122.696 85.7822V89H121.793V85.7676C121.793 85.0059 121.414 84.625 120.655 84.625C120.138 84.625 119.646 84.8415 119.181 85.2744V89H118.277ZM123.922 87.4521C123.922 86.4007 124.615 85.875 126.002 85.875C126.448 85.875 126.894 85.9076 127.34 85.9727V85.4893C127.34 84.9001 126.879 84.6055 125.958 84.6055C125.431 84.6055 124.89 84.6868 124.337 84.8496V84.1172C124.89 83.9544 125.431 83.873 125.958 83.873C127.481 83.873 128.243 84.4036 128.243 85.4648V89H127.735L127.423 88.4922C126.912 88.8307 126.355 89 125.753 89C124.532 89 123.922 88.484 123.922 87.4521ZM126.002 86.6074C125.217 86.6074 124.825 86.8841 124.825 87.4375C124.825 87.9909 125.134 88.2676 125.753 88.2676C126.378 88.2676 126.907 88.1016 127.34 87.7695V86.7051C126.894 86.64 126.448 86.6074 126.002 86.6074ZM129.713 89V83.873H130.323L130.475 84.5176C130.966 84.0879 131.502 83.873 132.081 83.873C132.823 83.873 133.329 84.1074 133.6 84.5762C134.156 84.1074 134.721 83.873 135.294 83.873C136.472 83.873 137.062 84.5225 137.062 85.8213V89H136.158V85.7725C136.158 85.0075 135.836 84.625 135.191 84.625C134.71 84.625 134.259 84.8464 133.839 85.2891V89H132.936V85.7871C132.936 85.0124 132.617 84.625 131.979 84.625C131.471 84.625 131.017 84.8464 130.616 85.2891V89H129.713ZM140.646 83.873C142.104 83.873 142.833 84.5941 142.833 86.0361C142.833 86.2412 142.818 86.4609 142.789 86.6953H139.19C139.19 87.7435 139.802 88.2676 141.026 88.2676C141.609 88.2676 142.127 88.2025 142.579 88.0723V88.8047C142.127 88.9349 141.576 89 140.929 89C139.168 89 138.287 88.126 138.287 86.3779C138.287 84.708 139.073 83.873 140.646 83.873ZM139.19 85.9434H141.964C141.944 85.0449 141.505 84.5957 140.646 84.5957C139.734 84.5957 139.249 85.0449 139.19 85.9434Z" fill="#BD93F9"/>
<path d="M62.1689 82.0176C61.5179 83.4889 61.1924 84.9619 61.1924 86.4365C61.1924 87.9111 61.5179 89.3841 62.1689 90.8555H61.2656C60.6146 89.3841 60.2891 87.9111 60.2891 86.4365C60.2891 84.9619 60.6146 83.4889 61.2656 82.0176H62.1689ZM150.958 82.0176C151.609 83.4889 151.935 84.9619 151.935 86.4365C151.935 87.9111 151.609 89.3841 150.958 90.8555H150.055C150.706 89.3841 151.031 87.9111 151.031 86.4365C151.031 84.9619 150.706 83.4889 150.055 82.0176H150.958Z" fill="white"/>
<path d="M65.1182 83.1846H64.3174L63.1504 82.0176H64.3174L65.1182 83.1846ZM68.8828 89V82.0176H69.7861V85.0938H73.9121V82.0176H74.8154V89H73.9121V85.8262H69.7861V89H68.8828ZM77.3838 83.873V89H76.4805V83.873H77.3838ZM77.3838 82.0176V82.8721H76.4805V82.0176H77.3838ZM94.7471 82.0176V89H93.8438V82.0176H94.7471ZM97.6084 82.0176L96.876 84.1416H95.9727L96.7051 82.0176H97.6084ZM98.5898 89V83.873H99.2002L99.3516 84.5176C99.8431 84.0879 100.379 83.873 100.958 83.873C101.7 83.873 102.206 84.1074 102.477 84.5762C103.033 84.1074 103.598 83.873 104.171 83.873C105.349 83.873 105.938 84.5225 105.938 85.8213V89H105.035V85.7725C105.035 85.0075 104.713 84.625 104.068 84.625C103.587 84.625 103.136 84.8464 102.716 85.2891V89H101.812V85.7871C101.812 85.0124 101.493 84.625 100.855 84.625C100.348 84.625 99.8936 84.8464 99.4932 85.2891V89H98.5898ZM111.407 82.9551V82.0176H112.262V82.9648C112.698 82.9974 113.131 83.0723 113.561 83.1895V83.9707C112.958 83.7754 112.351 83.6777 111.739 83.6777C110.886 83.6777 110.46 83.9219 110.46 84.4102C110.46 84.8659 110.729 85.0938 111.266 85.0938H111.998C113.17 85.0938 113.756 85.5983 113.756 86.6074C113.756 87.4245 113.258 87.8997 112.262 88.0332V89H111.407V88.0674C110.867 88.0511 110.331 87.9714 109.801 87.8281V87.0469C110.403 87.2422 111.012 87.3398 111.627 87.3398C112.444 87.3398 112.853 87.0957 112.853 86.6074C112.853 86.1517 112.568 85.9238 111.998 85.9238H111.266C110.159 85.9238 109.605 85.4193 109.605 84.4102C109.605 83.5117 110.206 83.0267 111.407 82.9551ZM117.296 82.0176C116.873 82.5905 116.661 83.3685 116.661 84.3516C116.661 85.4974 116.319 86.1924 115.636 86.4365C116.319 86.6807 116.661 87.3757 116.661 88.5215C116.661 89.5046 116.873 90.2826 117.296 90.8555H116.393C115.969 90.2826 115.758 89.5046 115.758 88.5215C115.758 87.3757 115.416 86.8027 114.732 86.8027V86.0703C115.416 86.0703 115.758 85.4974 115.758 84.3516C115.758 83.3685 115.969 82.5905 116.393 82.0176H117.296ZM144.464 82.0176C144.887 82.5905 145.099 83.3685 145.099 84.3516C145.099 85.4974 145.44 86.0703 146.124 86.0703V86.8027C145.44 86.8027 145.099 87.3757 145.099 88.5215C145.099 89.5046 144.887 90.2826 144.464 90.8555H143.561C143.984 90.2826 144.195 89.5046 144.195 88.5215C144.195 87.3757 144.537 86.6807 145.221 86.4365C144.537 86.1924 144.195 85.4974 144.195 84.3516C144.195 83.3685 143.984 82.5905 143.561 82.0176H144.464ZM149.073 83.1846H148.272L147.105 82.0176H148.272L149.073 83.1846Z" fill="#F1FA8C"/>
<path d="M84.8147 88.4895C84.5289 88.2601 81.8748 85.6791 81.8451 85.6509C81.7279 85.5337 81.6541 85.4121 81.6338 85.3007C81.6128 85.1849 81.6483 85.0836 81.7423 84.9895C81.8299 84.902 81.937 84.8557 82.052 84.8557C82.1924 84.8557 82.3364 84.9222 82.4565 85.0431L83.6598 86.1994C83.6808 86.2196 83.7083 86.2297 83.7351 86.2297C83.7633 86.2297 83.7908 86.2189 83.8118 86.1979C83.8538 86.1559 83.8538 86.0879 83.8125 86.046L81.8914 84.0619C81.6989 83.8694 81.6085 83.5749 81.8371 83.3463C81.9247 83.2587 82.0318 83.2124 82.1468 83.2124C82.2872 83.2124 82.4312 83.279 82.5513 83.3998L84.5166 85.3159C84.5375 85.3361 84.565 85.347 84.5925 85.347C84.62 85.347 84.6483 85.3361 84.6692 85.3151C84.7112 85.2732 84.7119 85.2052 84.67 85.1625L82.3096 82.7428C82.2004 82.6335 82.1345 82.5026 82.1229 82.3752C82.1121 82.2457 82.1577 82.1256 82.2554 82.0279C82.3429 81.9403 82.45 81.894 82.5651 81.894C82.7054 81.894 82.8494 81.9606 82.9695 82.0807L85.3769 84.428C85.3979 84.4483 85.4254 84.4591 85.4529 84.4591C85.4804 84.4591 85.5086 84.4483 85.5296 84.4273C85.5716 84.3853 85.5723 84.3173 85.5303 84.2746L83.7821 82.478C83.6721 82.368 83.6063 82.2377 83.5954 82.1104C83.5846 81.9809 83.6302 81.8607 83.7279 81.7631C83.8154 81.6755 83.9225 81.6292 84.0375 81.6292C84.1779 81.6292 84.3219 81.6958 84.442 81.8166C85.0831 82.4461 86.7568 84.0923 86.8132 84.1531C87.0281 84.3014 87.0715 84.0771 87.0824 83.9316C87.0947 83.7623 86.9008 83.1712 87.0137 82.6393C87.2032 81.9324 87.7495 82.0481 87.7618 82.0539C88.0614 82.1943 88.0042 82.4042 87.8979 82.826L87.887 82.9092C87.7756 83.4606 88.5411 85.0944 88.5976 85.2167C88.8979 85.8737 89.2437 87.2059 88.0983 88.3513C86.8429 89.6067 85.2886 88.9635 84.8147 88.4895V88.4895Z" fill="url(#paint1_radial_1_2)"/>
<path d="M86.4254 89.1943C85.6555 89.1943 85.0006 88.826 84.7423 88.5706C84.5101 88.381 83.0441 86.9657 81.8502 85.8072C81.8017 85.7602 81.7735 85.7334 81.7706 85.7298C81.6352 85.5945 81.5513 85.4534 81.5274 85.3202C81.4999 85.169 81.547 85.0322 81.6656 84.9128C81.7742 84.8043 81.9073 84.7471 82.052 84.7471C82.2221 84.7471 82.3928 84.8253 82.5332 84.9664L83.7351 86.1212L81.8132 84.1372C81.5918 83.9157 81.4804 83.5489 81.7604 83.2696C81.869 83.161 82.0021 83.1039 82.1468 83.1039C82.3169 83.1039 82.4876 83.182 82.628 83.3231L84.5918 85.2377L82.2322 82.8188C82.1063 82.6929 82.0289 82.5388 82.0151 82.3854C82.0014 82.2218 82.0578 82.072 82.1787 81.9512C82.2872 81.8427 82.4203 81.7855 82.5651 81.7855C82.7344 81.7855 82.9051 81.8629 83.0462 82.004L85.4529 84.3506L83.7047 82.554C83.5781 82.4273 83.5006 82.2732 83.4876 82.1198C83.4739 81.957 83.5303 81.8072 83.6512 81.6864C83.7597 81.5778 83.8928 81.5207 84.0376 81.5207C84.2076 81.5207 84.3784 81.5988 84.5187 81.7399L85.0404 82.2515C85.9702 83.1632 86.7474 83.9266 86.8306 84.012C86.8711 84.0445 86.9239 84.0568 86.9464 84.046C86.9608 84.0387 86.9768 84.0055 86.9739 83.9353C86.9695 83.8123 86.9522 83.6596 86.9341 83.4982C86.8979 83.1741 86.8603 82.8383 86.9073 82.6169C87.01 82.2327 87.2119 82.0699 87.3624 81.9997C87.5694 81.9042 87.7698 81.9375 87.8082 81.9555C88.1844 82.1321 88.1099 82.4273 88.0071 82.8369L88.005 82.847L87.9934 82.9317C87.9181 83.3021 88.3045 84.326 88.6909 85.1603L88.6967 85.1719C88.955 85.7363 89.4203 87.1842 88.1757 88.4287C87.6034 88.9997 86.984 89.1943 86.4254 89.1943V89.1943ZM82.052 84.9642C81.9666 84.9642 81.8856 84.9997 81.819 85.0662C81.7503 85.135 81.7264 85.2016 81.7409 85.2811C81.7568 85.3687 81.8212 85.4729 81.9218 85.5742C81.9225 85.5749 81.9515 85.6031 82.0014 85.6509C83.696 87.2956 84.7192 88.2732 84.8827 88.4049L84.8914 88.4128C85.2908 88.8122 86.7749 89.5214 88.0216 88.2746C89.1699 87.1263 88.738 85.7855 88.4985 85.2616L88.4934 85.2508C88.2445 84.7139 87.6786 83.4114 87.7792 82.8919L87.7959 82.7833C87.9073 82.3405 87.9138 82.2479 87.7249 82.1567C87.6692 82.1466 87.2698 82.0981 87.1171 82.6676C87.0788 82.8492 87.1157 83.1813 87.1482 83.4744C87.1671 83.6401 87.1844 83.7971 87.1888 83.928C87.196 84.1343 87.0983 84.2131 87.039 84.2421C86.9181 84.3007 86.7742 84.2508 86.6844 84.1755L86.675 84.1668C86.6309 84.1191 85.581 83.0894 84.8863 82.4078L84.3639 81.8948C84.1859 81.716 83.9565 81.6864 83.8024 81.8405C83.7271 81.9157 83.6931 82.004 83.7011 82.1017C83.7098 82.2037 83.7648 82.3101 83.8567 82.402L85.6085 84.1987C85.6909 84.2826 85.6909 84.4201 85.607 84.504C85.5267 84.5843 85.3849 84.5858 85.3024 84.5062L82.8936 82.1582C82.7156 81.9801 82.4855 81.9505 82.3321 82.1046C82.2568 82.1799 82.2228 82.2681 82.2308 82.3658C82.2402 82.4678 82.2952 82.5749 82.3863 82.6654L84.7474 85.0865C84.8306 85.1704 84.8299 85.3079 84.7459 85.3919C84.6656 85.4722 84.5238 85.4736 84.4413 85.394L82.4753 83.4772C82.2973 83.2978 82.0672 83.2689 81.9138 83.423C81.7264 83.6104 81.8263 83.8427 81.9681 83.9852L83.8907 85.9707C83.9732 86.0547 83.9724 86.1914 83.8885 86.2746C83.8074 86.3557 83.6671 86.3564 83.5846 86.2775L82.3813 85.1212C82.28 85.0192 82.1635 84.9642 82.052 84.9642V84.9642Z" fill="#EDBD82"/>
<path d="M86.6403 84.0828C86.243 84.894 86.2944 86.0293 86.8906 86.9403C86.9579 87.0633 87.073 87.0032 87.0144 86.8766C86.2944 85.3361 87.0491 84.2261 87.0491 84.2261L86.6403 84.0828Z" fill="#EDBD82"/>
<path d="M85.0781 81.0409C85.2966 80.9837 85.5296 80.9888 85.7561 81.0416C85.9811 81.0959 86.2061 81.2102 86.3733 81.3969C86.5368 81.5822 86.6374 81.8072 86.6714 82.0431C86.7032 82.2768 86.6736 82.5177 86.5629 82.7175C86.5498 82.4931 86.5108 82.2869 86.4449 82.0966C86.4109 82.0018 86.3711 81.9114 86.3226 81.826C86.2749 81.7413 86.2184 81.6574 86.1584 81.5887C86.0361 81.4476 85.8704 81.3376 85.6844 81.2522C85.4977 81.1639 85.2944 81.0988 85.0781 81.0409V81.0409Z" fill="#B0BEC5"/>
<path d="M85.1381 81.7269C85.259 81.6502 85.4102 81.6342 85.5527 81.6596C85.6967 81.6849 85.8342 81.7565 85.9427 81.8557C86.0506 81.9562 86.1273 82.0829 86.175 82.2146C86.1982 82.2804 86.2097 82.3499 86.2206 82.4172C86.2242 82.4866 86.2242 82.5561 86.2134 82.6255C86.1634 82.5727 86.1244 82.5199 86.0875 82.4685C86.0448 82.4201 86.0115 82.3687 85.9731 82.3216C85.8979 82.2283 85.8248 82.1436 85.7459 82.0684C85.6649 81.9953 85.5795 81.9309 85.4804 81.8752C85.382 81.818 85.2713 81.7703 85.1381 81.7269Z" fill="#90A4AE"/>
<path d="M81.0014 86.3115C81.1034 86.5112 81.2098 86.6964 81.3335 86.86C81.4565 87.0235 81.5976 87.1624 81.7619 87.2529C81.8415 87.297 81.9363 87.3354 82.0289 87.3643C82.1222 87.394 82.2192 87.4142 82.319 87.428C82.5187 87.4526 82.7286 87.4482 82.9507 87.4142C82.7785 87.564 82.5484 87.6436 82.314 87.661C82.0766 87.6769 81.8357 87.6255 81.62 87.504C81.403 87.3802 81.2438 87.1834 81.1439 86.9743C81.0441 86.7637 80.9905 86.5373 81.0014 86.3115V86.3115Z" fill="#B0BEC5"/>
<path d="M81.6852 86.2269C81.7554 86.3484 81.8248 86.4461 81.9008 86.5315C81.9761 86.6169 82.0571 86.6871 82.1454 86.7507C82.2351 86.8122 82.3335 86.8665 82.4406 86.9208C82.4941 86.9483 82.5513 86.97 82.6077 87.0018C82.6664 87.0271 82.7257 87.0539 82.7879 87.0923C82.7221 87.1169 82.6548 87.1313 82.586 87.1422C82.518 87.1451 82.4478 87.1487 82.3784 87.1393C82.2394 87.1205 82.1005 87.072 81.9789 86.9873C81.8596 86.9012 81.7604 86.7819 81.7062 86.6465C81.6512 86.512 81.6352 86.3614 81.6852 86.2269V86.2269Z" fill="#90A4AE"/>
<path d="M75.8147 103.49C75.5289 103.26 72.8748 100.679 72.8451 100.651C72.7279 100.534 72.6541 100.412 72.6338 100.301C72.6128 100.185 72.6483 100.084 72.7423 99.9895C72.8299 99.902 72.937 99.8557 73.052 99.8557C73.1924 99.8557 73.3364 99.9222 73.4565 100.043L74.6598 101.199C74.6808 101.22 74.7083 101.23 74.7351 101.23C74.7633 101.23 74.7908 101.219 74.8118 101.198C74.8538 101.156 74.8538 101.088 74.8125 101.046L72.8914 99.0619C72.6989 98.8694 72.6085 98.5749 72.8371 98.3463C72.9247 98.2587 73.0318 98.2124 73.1468 98.2124C73.2872 98.2124 73.4312 98.279 73.5513 98.3998L75.5166 100.316C75.5375 100.336 75.565 100.347 75.5925 100.347C75.62 100.347 75.6483 100.336 75.6692 100.315C75.7112 100.273 75.7119 100.205 75.67 100.162L73.3096 97.7428C73.2004 97.6335 73.1345 97.5026 73.1229 97.3752C73.1121 97.2457 73.1577 97.1256 73.2554 97.0279C73.3429 96.9403 73.45 96.894 73.5651 96.894C73.7054 96.894 73.8494 96.9606 73.9695 97.0807L76.3769 99.428C76.3979 99.4483 76.4254 99.4591 76.4529 99.4591C76.4804 99.4591 76.5086 99.4483 76.5296 99.4273C76.5716 99.3853 76.5723 99.3173 76.5303 99.2746L74.7821 97.478C74.6721 97.368 74.6063 97.2377 74.5954 97.1104C74.5846 96.9809 74.6302 96.8607 74.7279 96.7631C74.8154 96.6755 74.9225 96.6292 75.0375 96.6292C75.1779 96.6292 75.3219 96.6958 75.442 96.8166C76.0831 97.4461 77.7568 99.0923 77.8132 99.1531C78.0281 99.3014 78.0715 99.0771 78.0824 98.9316C78.0947 98.7623 77.9008 98.1712 78.0137 97.6393C78.2032 96.9324 78.7495 97.0481 78.7618 97.0539C79.0614 97.1943 79.0042 97.4042 78.8979 97.826L78.887 97.9092C78.7756 98.4606 79.5411 100.094 79.5976 100.217C79.8979 100.874 80.2437 102.206 79.0983 103.351C77.8429 104.607 76.2886 103.963 75.8147 103.49V103.49Z" fill="url(#paint2_radial_1_2)"/>
<path d="M77.4254 104.194C76.6555 104.194 76.0006 103.826 75.7423 103.571C75.5101 103.381 74.0441 101.966 72.8502 100.807C72.8017 100.76 72.7735 100.733 72.7706 100.73C72.6352 100.594 72.5513 100.453 72.5274 100.32C72.4999 100.169 72.547 100.032 72.6656 99.9128C72.7742 99.8043 72.9073 99.7471 73.052 99.7471C73.2221 99.7471 73.3928 99.8253 73.5332 99.9664L74.7351 101.121L72.8132 99.1372C72.5918 98.9157 72.4804 98.5489 72.7604 98.2696C72.869 98.161 73.0021 98.1039 73.1468 98.1039C73.3169 98.1039 73.4876 98.182 73.628 98.3231L75.5918 100.238L73.2322 97.8188C73.1063 97.6929 73.0289 97.5388 73.0151 97.3854C73.0014 97.2218 73.0578 97.072 73.1787 96.9512C73.2872 96.8427 73.4203 96.7855 73.5651 96.7855C73.7344 96.7855 73.9051 96.8629 74.0462 97.004L76.4529 99.3506L74.7047 97.554C74.5781 97.4273 74.5006 97.2732 74.4876 97.1198C74.4739 96.957 74.5303 96.8072 74.6512 96.6864C74.7597 96.5778 74.8928 96.5207 75.0376 96.5207C75.2076 96.5207 75.3784 96.5988 75.5187 96.7399L76.0404 97.2515C76.9702 98.1632 77.7474 98.9266 77.8306 99.012C77.8711 99.0445 77.9239 99.0568 77.9464 99.046C77.9608 99.0387 77.9768 99.0055 77.9739 98.9353C77.9695 98.8123 77.9522 98.6596 77.9341 98.4982C77.8979 98.1741 77.8603 97.8383 77.9073 97.6169C78.01 97.2327 78.2119 97.0699 78.3624 96.9997C78.5694 96.9042 78.7698 96.9375 78.8082 96.9555C79.1844 97.1321 79.1099 97.4273 79.0071 97.8369L79.005 97.847L78.9934 97.9317C78.9181 98.3021 79.3045 99.326 79.6909 100.16L79.6967 100.172C79.955 100.736 80.4203 102.184 79.1757 103.429C78.6034 104 77.984 104.194 77.4254 104.194V104.194ZM73.052 99.9642C72.9666 99.9642 72.8856 99.9997 72.819 100.066C72.7503 100.135 72.7264 100.202 72.7409 100.281C72.7568 100.369 72.8212 100.473 72.9218 100.574C72.9225 100.575 72.9515 100.603 73.0014 100.651C74.696 102.296 75.7192 103.273 75.8827 103.405L75.8914 103.413C76.2908 103.812 77.7749 104.521 79.0216 103.275C80.1699 102.126 79.738 100.785 79.4985 100.262L79.4934 100.251C79.2445 99.7139 78.6786 98.4114 78.7792 97.8919L78.7959 97.7833C78.9073 97.3405 78.9138 97.2479 78.7249 97.1567C78.6692 97.1466 78.2698 97.0981 78.1171 97.6676C78.0788 97.8492 78.1157 98.1813 78.1482 98.4744C78.1671 98.6401 78.1844 98.7971 78.1888 98.928C78.196 99.1343 78.0983 99.2131 78.039 99.2421C77.9181 99.3007 77.7742 99.2508 77.6844 99.1755L77.675 99.1668C77.6309 99.1191 76.581 98.0894 75.8863 97.4078L75.3639 96.8948C75.1859 96.716 74.9565 96.6864 74.8024 96.8405C74.7271 96.9157 74.6931 97.004 74.7011 97.1017C74.7098 97.2037 74.7648 97.3101 74.8567 97.402L76.6085 99.1987C76.6909 99.2826 76.6909 99.4201 76.607 99.504C76.5267 99.5843 76.3849 99.5858 76.3024 99.5062L73.8936 97.1582C73.7156 96.9801 73.4855 96.9505 73.3321 97.1046C73.2568 97.1799 73.2228 97.2681 73.2308 97.3658C73.2402 97.4678 73.2952 97.5749 73.3863 97.6654L75.7474 100.087C75.8306 100.17 75.8299 100.308 75.7459 100.392C75.6656 100.472 75.5238 100.474 75.4413 100.394L73.4753 98.4772C73.2973 98.2978 73.0672 98.2689 72.9138 98.423C72.7264 98.6104 72.8263 98.8427 72.9681 98.9852L74.8907 100.971C74.9732 101.055 74.9724 101.191 74.8885 101.275C74.8074 101.356 74.6671 101.356 74.5846 101.278L73.3813 100.121C73.28 100.019 73.1635 99.9642 73.052 99.9642V99.9642Z" fill="#EDBD82"/>
<path d="M77.6403 99.0828C77.243 99.894 77.2944 101.029 77.8906 101.94C77.9579 102.063 78.073 102.003 78.0144 101.877C77.2944 100.336 78.0491 99.2261 78.0491 99.2261L77.6403 99.0828Z" fill="#EDBD82"/>
<path d="M76.0781 96.0409C76.2966 95.9837 76.5296 95.9888 76.7561 96.0416C76.9811 96.0959 77.2061 96.2102 77.3733 96.3969C77.5368 96.5822 77.6374 96.8072 77.6714 97.0431C77.7032 97.2768 77.6736 97.5177 77.5629 97.7175C77.5498 97.4931 77.5108 97.2869 77.4449 97.0966C77.4109 97.0018 77.3711 96.9114 77.3226 96.826C77.2749 96.7413 77.2184 96.6574 77.1584 96.5887C77.0361 96.4476 76.8704 96.3376 76.6844 96.2522C76.4977 96.1639 76.2944 96.0988 76.0781 96.0409V96.0409Z" fill="#B0BEC5"/>
<path d="M76.1381 96.7269C76.259 96.6502 76.4102 96.6342 76.5527 96.6596C76.6967 96.6849 76.8342 96.7565 76.9427 96.8557C77.0506 96.9562 77.1273 97.0829 77.175 97.2146C77.1982 97.2804 77.2097 97.3499 77.2206 97.4172C77.2242 97.4866 77.2242 97.5561 77.2134 97.6255C77.1634 97.5727 77.1244 97.5199 77.0875 97.4685C77.0448 97.4201 77.0115 97.3687 76.9731 97.3216C76.8979 97.2283 76.8248 97.1436 76.7459 97.0684C76.6649 96.9953 76.5795 96.9309 76.4804 96.8752C76.382 96.818 76.2713 96.7703 76.1381 96.7269Z" fill="#90A4AE"/>
<path d="M72.0014 101.311C72.1034 101.511 72.2098 101.696 72.3335 101.86C72.4565 102.024 72.5976 102.162 72.7619 102.253C72.8415 102.297 72.9363 102.335 73.0289 102.364C73.1222 102.394 73.2192 102.414 73.319 102.428C73.5187 102.453 73.7286 102.448 73.9507 102.414C73.7785 102.564 73.5484 102.644 73.314 102.661C73.0766 102.677 72.8357 102.626 72.62 102.504C72.403 102.38 72.2438 102.183 72.1439 101.974C72.0441 101.764 71.9905 101.537 72.0014 101.311V101.311Z" fill="#B0BEC5"/>
<path d="M72.6852 101.227C72.7554 101.348 72.8248 101.446 72.9008 101.531C72.9761 101.617 73.0571 101.687 73.1454 101.751C73.2351 101.812 73.3335 101.867 73.4406 101.921C73.4941 101.948 73.5513 101.97 73.6077 102.002C73.6664 102.027 73.7257 102.054 73.7879 102.092C73.7221 102.117 73.6548 102.131 73.586 102.142C73.518 102.145 73.4478 102.149 73.3784 102.139C73.2394 102.12 73.1005 102.072 72.9789 101.987C72.8596 101.901 72.7604 101.782 72.7062 101.647C72.6512 101.512 72.6352 101.361 72.6852 101.227V101.227Z" fill="#90A4AE"/>
<path d="M45.123 103H44.1221L47.6621 96.0176H48.6631L45.123 103ZM49.9082 103H48.9072L52.4473 96.0176H53.4482L49.9082 103ZM59.2832 103V96.0176H60.1865V99.0938H64.3125V96.0176H65.2158V103H64.3125V99.8262H60.1865V103H59.2832ZM67.7842 97.873V103H66.8809V97.873H67.7842ZM67.7842 96.0176V96.8721H66.8809V96.0176H67.7842ZM85.1475 96.0176V103H84.2441V96.0176H85.1475ZM88.0088 96.0176L87.2764 98.1416H86.373L87.1055 96.0176H88.0088ZM88.9902 103V97.873H89.6006L89.752 98.5176C90.2435 98.0879 90.779 97.873 91.3584 97.873C92.1006 97.873 92.6068 98.1074 92.877 98.5762C93.4336 98.1074 93.9984 97.873 94.5713 97.873C95.7497 97.873 96.3389 98.5225 96.3389 99.8213V103H95.4355V99.7725C95.4355 99.0075 95.1133 98.625 94.4688 98.625C93.987 98.625 93.5361 98.8464 93.1162 99.2891V103H92.2129V99.7871C92.2129 99.0124 91.8939 98.625 91.2559 98.625C90.748 98.625 90.2939 98.8464 89.8936 99.2891V103H88.9902ZM100.348 103V96.0176H103.326C104.654 96.0176 105.318 96.5596 105.318 97.6436C105.318 98.4378 104.885 99.0059 104.02 99.3477C104.944 99.5202 105.406 100.049 105.406 100.935C105.406 102.312 104.679 103 103.224 103H100.348ZM103.17 102.268C104.003 102.268 104.42 101.844 104.42 100.998C104.42 100.174 103.862 99.7627 102.745 99.7627H102.354V99.1719C103.689 98.9928 104.356 98.5111 104.356 97.7266C104.356 97.0755 103.985 96.75 103.243 96.75H101.251V102.268H103.17ZM106.5 101.452C106.5 100.401 107.193 99.875 108.58 99.875C109.026 99.875 109.472 99.9076 109.918 99.9727V99.4893C109.918 98.9001 109.457 98.6055 108.536 98.6055C108.009 98.6055 107.468 98.6868 106.915 98.8496V98.1172C107.468 97.9544 108.009 97.873 108.536 97.873C110.06 97.873 110.821 98.4036 110.821 99.4648V103H110.313L110.001 102.492C109.49 102.831 108.933 103 108.331 103C107.11 103 106.5 102.484 106.5 101.452ZM108.58 100.607C107.796 100.607 107.403 100.884 107.403 101.438C107.403 101.991 107.713 102.268 108.331 102.268C108.956 102.268 109.485 102.102 109.918 101.77V100.705C109.472 100.64 109.026 100.607 108.58 100.607ZM113.292 97.873V103H112.389V97.873H113.292ZM113.292 96.0176V96.8721H112.389V96.0176H113.292ZM115.763 102.106C116.059 102.201 116.419 102.248 116.842 102.248C117.981 102.248 118.551 101.599 118.551 100.3C118.551 99.2028 118.035 98.6543 117.003 98.6543C116.534 98.6543 116.121 98.7422 115.763 98.918V102.106ZM114.859 96.0176H115.763V98.1172C116.15 97.9544 116.565 97.873 117.008 97.873C118.629 97.873 119.439 98.6934 119.439 100.334C119.439 102.111 118.588 103 116.886 103C116.15 103 115.475 102.93 114.859 102.79V96.0176ZM120.611 102.756V101.975C121.214 102.17 121.822 102.268 122.438 102.268C123.255 102.268 123.663 102.023 123.663 101.535C123.663 101.079 123.378 100.852 122.809 100.852H122.076C120.969 100.852 120.416 100.347 120.416 99.3379C120.416 98.3613 121.127 97.873 122.55 97.873C123.162 97.873 123.769 97.9544 124.371 98.1172V98.8984C123.769 98.7031 123.162 98.6055 122.55 98.6055C121.697 98.6055 121.271 98.8496 121.271 99.3379C121.271 99.7936 121.539 100.021 122.076 100.021H122.809C123.98 100.021 124.566 100.526 124.566 101.535C124.566 102.512 123.857 103 122.438 103C121.822 103 121.214 102.919 120.611 102.756Z" fill="#28B3F2"/>
<path d="M147.097 99.4396C147.731 97.7845 147.341 96.518 147.117 96.1548C147.028 96.0108 146.858 95.9708 146.7 96.0201C146.286 96.1508 145.166 97.0653 144.672 98.3451" fill="#FFC022"/>
<path d="M140.903 99.4396C140.269 97.7845 140.659 96.518 140.883 96.1548C140.972 96.0108 141.142 95.9708 141.3 96.0201C141.714 96.1508 142.834 97.0653 143.328 98.3451" fill="#FFC022"/>
<path d="M147.34 100.222C147.22 98.4904 146.029 97.2586 144 97.2586C141.971 97.2586 140.78 98.4904 140.66 100.222C140.59 101.231 140.997 102.089 141.799 102.636C141.799 102.636 142.613 103.294 144 103.312C145.387 103.294 146.201 102.636 146.201 102.636C147.003 102.089 147.41 101.231 147.34 100.222V100.222Z" fill="#FFC022"/>
<path opacity="0.47" d="M143.341 98.5064C143.417 98.5704 143.569 98.561 143.658 98.4584C143.765 98.3337 143.877 97.9138 143.807 97.2646C143.496 97.2759 143.201 97.3206 142.927 97.3959C143.149 97.7598 143.202 98.3877 143.341 98.5064Z" fill="#FF7043"/>
<path opacity="0.47" d="M144.659 98.5064C144.583 98.5704 144.431 98.561 144.342 98.4584C144.235 98.3337 144.123 97.9138 144.193 97.2646C144.504 97.2759 144.799 97.3206 145.073 97.3959C144.851 97.7598 144.798 98.3877 144.659 98.5064Z" fill="#FF7043"/>
<path d="M140.14 99.8262L141.146 100.322" stroke="#9E9E9E" stroke-width="0.767801" stroke-miterlimit="10" stroke-linecap="round"/>
<path d="M140 100.64L141.21 100.85" stroke="#9E9E9E" stroke-width="0.767801" stroke-miterlimit="10" stroke-linecap="round"/>
<path d="M147.86 99.8262L146.854 100.322" stroke="#9E9E9E" stroke-width="0.767801" stroke-miterlimit="10" stroke-linecap="round"/>
<path d="M148 100.64L146.79 100.85" stroke="#9E9E9E" stroke-width="0.767801" stroke-miterlimit="10" stroke-linecap="round"/>
<path d="M141.904 100.189C141.884 100.189 141.864 100.185 141.845 100.176C141.77 100.143 141.736 100.056 141.769 99.9815C141.792 99.9281 142.009 99.4582 142.392 99.4582C142.771 99.4582 143.004 99.9075 143.029 99.9588C143.065 100.032 143.035 100.121 142.962 100.157C142.888 100.193 142.817 100.149 142.764 100.089C142.699 100.017 142.558 99.8562 142.392 99.8562C142.226 99.8562 142.087 100.029 142.04 100.099C142.006 100.151 141.961 100.189 141.904 100.189V100.189Z" fill="black"/>
<path d="M146.096 100.189C146.116 100.189 146.136 100.185 146.155 100.176C146.23 100.143 146.264 100.056 146.231 99.9815C146.208 99.9281 145.991 99.4582 145.608 99.4582C145.229 99.4582 144.997 99.9075 144.971 99.9588C144.935 100.032 144.965 100.121 145.038 100.157C145.112 100.193 145.183 100.149 145.236 100.089C145.301 100.017 145.442 99.8562 145.608 99.8562C145.774 99.8562 145.913 100.029 145.96 100.099C145.994 100.151 146.039 100.189 146.096 100.189V100.189Z" fill="black"/>
<path d="M143.464 100.637C143.461 100.446 143.735 100.354 143.994 100.35C144.253 100.345 144.532 100.43 144.535 100.621C144.539 100.811 144.211 101.063 144.005 101.063C143.799 101.063 143.467 100.827 143.464 100.637Z" fill="black"/>
<path d="M145.737 101.53C145.628 101.419 145.451 101.386 145.287 101.447C145.106 101.515 144.554 101.723 144.273 101.544C144.025 101.387 144.039 101.069 144.039 101.069H143.934C143.934 101.069 143.951 101.416 143.727 101.544C143.437 101.711 142.893 101.515 142.712 101.447C142.549 101.386 142.372 101.419 142.262 101.53C142.159 101.635 142.141 101.785 142.214 101.922C142.369 102.212 142.92 102.702 143.999 102.706C145.079 102.703 145.63 102.212 145.784 101.922C145.858 101.785 145.84 101.635 145.737 101.53V101.53Z" fill="white"/>
<path d="M145.838 101.425C145.722 101.299 145.536 101.262 145.362 101.331C145.171 101.408 144.587 101.643 144.289 101.441C144.027 101.263 144.133 100.987 144.133 100.987H143.867C143.867 100.987 143.948 101.295 143.711 101.441C143.404 101.629 142.829 101.407 142.638 101.331C142.464 101.262 142.278 101.299 142.162 101.425C142.052 101.543 142.033 101.713 142.111 101.868C142.275 102.196 142.858 102.752 144 102.756C145.143 102.752 145.725 102.196 145.889 101.868C145.967 101.713 145.948 101.543 145.838 101.425V101.425ZM145.71 101.779C145.576 102.046 145.047 102.553 144 102.556C142.953 102.552 142.424 102.046 142.29 101.779C142.249 101.697 142.256 101.617 142.308 101.56C142.346 101.519 142.402 101.497 142.462 101.497C142.494 101.497 142.529 101.503 142.563 101.517C142.937 101.667 143.475 101.838 143.822 101.607C143.902 101.554 143.958 101.51 143.998 101.474C143.999 101.475 143.999 101.475 144 101.475C144.001 101.475 144.001 101.474 144.002 101.474C144.042 101.51 144.099 101.554 144.178 101.607C144.525 101.838 145.063 101.667 145.437 101.517C145.471 101.503 145.505 101.497 145.538 101.497C145.598 101.497 145.654 101.519 145.692 101.56C145.744 101.618 145.751 101.697 145.71 101.779Z" fill="black"/>
<path d="M142.596 101.474V102.296" stroke="black" stroke-width="0.511867" stroke-miterlimit="10"/>
<path d="M143.298 101.605V102.514" stroke="black" stroke-width="0.511867" stroke-miterlimit="10"/>
<path d="M144 101.291V102.618" stroke="black" stroke-width="0.511867" stroke-miterlimit="10"/>
<path d="M145.404 101.397V102.219" stroke="black" stroke-width="0.511867" stroke-miterlimit="10"/>
<path d="M144.702 101.537V102.482" stroke="black" stroke-width="0.511867" stroke-miterlimit="10"/>
<path d="M146.334 100.508C146.317 100.471 146.347 100.429 146.388 100.434C146.636 100.461 147.31 100.582 147.721 101.126C147.956 101.436 148.036 102 147.689 102.259C147.265 102.574 146.756 102.282 146.679 101.902C146.62 101.613 146.587 101.335 146.537 101.136C146.454 100.805 146.378 100.607 146.334 100.508Z" fill="#28B3F2"/>
<path d="M147.793 102.052C147.363 102.359 146.918 102.121 146.821 101.697C146.821 101.697 146.711 101.197 146.638 100.983C146.521 100.641 146.343 100.451 146.343 100.451C146.343 100.451 146.319 100.475 146.334 100.509C146.378 100.609 146.454 100.806 146.537 101.137C146.587 101.336 146.62 101.614 146.679 101.902C146.756 102.284 147.265 102.575 147.689 102.26C147.807 102.172 147.875 102.048 147.905 101.91C147.878 101.967 147.841 102.016 147.793 102.052V102.052Z" fill="#0277BD"/>
<path d="M147.3 101.085C147.425 101.022 147.661 101.139 147.771 101.451C147.883 101.773 147.664 101.971 147.444 101.724C147.283 101.545 147.173 101.149 147.3 101.085V101.085Z" fill="#81D4FA"/>
<path d="M141.666 100.508C141.683 100.471 141.653 100.429 141.612 100.434C141.364 100.461 140.69 100.582 140.279 101.126C140.044 101.436 139.964 102 140.311 102.259C140.735 102.574 141.244 102.282 141.321 101.902C141.38 101.613 141.413 101.335 141.463 101.136C141.546 100.805 141.622 100.607 141.666 100.508Z" fill="#28B3F2"/>
<path d="M140.207 102.052C140.637 102.359 141.082 102.121 141.179 101.697C141.179 101.697 141.289 101.197 141.362 100.983C141.479 100.641 141.657 100.451 141.657 100.451C141.657 100.451 141.681 100.475 141.666 100.509C141.622 100.609 141.546 100.806 141.463 101.137C141.413 101.336 141.38 101.614 141.321 101.902C141.244 102.284 140.735 102.575 140.311 102.26C140.193 102.172 140.125 102.048 140.095 101.91C140.122 101.967 140.159 102.016 140.207 102.052V102.052Z" fill="#0277BD"/>
<path d="M140.7 101.085C140.575 101.022 140.339 101.139 140.229 101.451C140.117 101.773 140.336 101.971 140.556 101.724C140.717 101.545 140.827 101.149 140.7 101.085V101.085Z" fill="#81D4FA"/>
<path d="M145.877 97.9205C145.774 97.8345 145.777 97.6958 145.837 97.5765C145.981 97.2893 146.326 96.9913 146.448 96.8947C146.648 96.736 146.802 96.6827 146.862 96.938C146.972 97.4099 146.963 98.0505 146.845 98.4037C146.804 98.5284 146.676 98.5944 146.577 98.5084L145.877 97.9205Z" fill="#FFD1D1"/>
<path d="M142.123 97.9205C142.226 97.8345 142.223 97.6958 142.163 97.5765C142.019 97.2893 141.674 96.9913 141.552 96.8947C141.352 96.736 141.198 96.6827 141.138 96.938C141.028 97.4099 141.037 98.0505 141.155 98.4037C141.196 98.5284 141.324 98.5944 141.423 98.5084L142.123 97.9205Z" fill="#FFD1D1"/>
<path d="M158.097 99.4396C158.731 97.7845 158.341 96.518 158.117 96.1548C158.028 96.0108 157.858 95.9708 157.7 96.0201C157.286 96.1508 156.166 97.0653 155.672 98.3451" fill="#FFC022"/>
<path d="M151.903 99.4396C151.269 97.7845 151.659 96.518 151.883 96.1548C151.972 96.0108 152.142 95.9708 152.3 96.0201C152.714 96.1508 153.834 97.0653 154.328 98.3451" fill="#FFC022"/>
<path d="M158.34 100.222C158.22 98.4904 157.029 97.2586 155 97.2586C152.971 97.2586 151.78 98.4904 151.66 100.222C151.59 101.231 151.997 102.089 152.799 102.636C152.799 102.636 153.613 103.294 155 103.312C156.387 103.294 157.201 102.636 157.201 102.636C158.003 102.089 158.41 101.231 158.34 100.222V100.222Z" fill="#FFC022"/>
<path opacity="0.47" d="M154.341 98.5064C154.417 98.5704 154.569 98.561 154.658 98.4584C154.765 98.3337 154.877 97.9138 154.807 97.2646C154.496 97.2759 154.201 97.3206 153.927 97.3959C154.149 97.7598 154.202 98.3877 154.341 98.5064Z" fill="#FF7043"/>
<path opacity="0.47" d="M155.659 98.5064C155.583 98.5704 155.431 98.561 155.342 98.4584C155.235 98.3337 155.123 97.9138 155.193 97.2646C155.504 97.2759 155.799 97.3206 156.073 97.3959C155.851 97.7598 155.798 98.3877 155.659 98.5064Z" fill="#FF7043"/>
<path d="M151.14 99.8262L152.146 100.322" stroke="#9E9E9E" stroke-width="0.767801" stroke-miterlimit="10" stroke-linecap="round"/>
<path d="M151 100.64L152.21 100.85" stroke="#9E9E9E" stroke-width="0.767801" stroke-miterlimit="10" stroke-linecap="round"/>
<path d="M158.86 99.8262L157.854 100.322" stroke="#9E9E9E" stroke-width="0.767801" stroke-miterlimit="10" stroke-linecap="round"/>
<path d="M159 100.64L157.79 100.85" stroke="#9E9E9E" stroke-width="0.767801" stroke-miterlimit="10" stroke-linecap="round"/>
<path d="M152.904 100.189C152.884 100.189 152.864 100.185 152.845 100.176C152.77 100.143 152.736 100.056 152.769 99.9815C152.792 99.9281 153.009 99.4582 153.392 99.4582C153.771 99.4582 154.003 99.9075 154.029 99.9588C154.065 100.032 154.035 100.121 153.962 100.157C153.888 100.193 153.817 100.149 153.764 100.089C153.699 100.017 153.558 99.8562 153.392 99.8562C153.226 99.8562 153.087 100.029 153.04 100.099C153.006 100.151 152.961 100.189 152.904 100.189V100.189Z" fill="black"/>
<path d="M157.096 100.189C157.116 100.189 157.136 100.185 157.155 100.176C157.23 100.143 157.264 100.056 157.231 99.9815C157.208 99.9281 156.991 99.4582 156.608 99.4582C156.229 99.4582 155.997 99.9075 155.971 99.9588C155.935 100.032 155.965 100.121 156.038 100.157C156.112 100.193 156.183 100.149 156.236 100.089C156.301 100.017 156.442 99.8562 156.608 99.8562C156.774 99.8562 156.913 100.029 156.96 100.099C156.994 100.151 157.039 100.189 157.096 100.189V100.189Z" fill="black"/>
<path d="M154.464 100.637C154.461 100.446 154.735 100.354 154.994 100.35C155.253 100.345 155.532 100.43 155.535 100.621C155.539 100.811 155.211 101.063 155.005 101.063C154.799 101.063 154.467 100.827 154.464 100.637Z" fill="black"/>
<path d="M156.737 101.53C156.628 101.419 156.451 101.386 156.287 101.447C156.106 101.515 155.554 101.723 155.273 101.544C155.025 101.387 155.039 101.069 155.039 101.069H154.934C154.934 101.069 154.951 101.416 154.727 101.544C154.437 101.711 153.893 101.515 153.712 101.447C153.549 101.386 153.372 101.419 153.262 101.53C153.159 101.635 153.141 101.785 153.214 101.922C153.369 102.212 153.92 102.702 154.999 102.706C156.079 102.703 156.63 102.212 156.784 101.922C156.858 101.785 156.84 101.635 156.737 101.53V101.53Z" fill="white"/>
<path d="M156.838 101.425C156.722 101.299 156.536 101.262 156.362 101.331C156.171 101.408 155.587 101.643 155.289 101.441C155.027 101.263 155.133 100.987 155.133 100.987H154.867C154.867 100.987 154.948 101.295 154.711 101.441C154.404 101.629 153.829 101.407 153.638 101.331C153.464 101.262 153.278 101.299 153.162 101.425C153.052 101.543 153.033 101.713 153.111 101.868C153.275 102.196 153.858 102.752 155 102.756C156.143 102.752 156.725 102.196 156.889 101.868C156.967 101.713 156.948 101.543 156.838 101.425V101.425ZM156.71 101.779C156.576 102.046 156.047 102.553 155 102.556C153.953 102.552 153.424 102.046 153.29 101.779C153.249 101.697 153.256 101.617 153.308 101.56C153.346 101.519 153.402 101.497 153.462 101.497C153.494 101.497 153.529 101.503 153.563 101.517C153.937 101.667 154.475 101.838 154.822 101.607C154.902 101.554 154.958 101.51 154.998 101.474C154.999 101.475 154.999 101.475 155 101.475C155.001 101.475 155.001 101.474 155.002 101.474C155.042 101.51 155.099 101.554 155.178 101.607C155.525 101.838 156.063 101.667 156.437 101.517C156.471 101.503 156.505 101.497 156.538 101.497C156.598 101.497 156.654 101.519 156.692 101.56C156.744 101.618 156.751 101.697 156.71 101.779Z" fill="black"/>
<path d="M153.596 101.474V102.296" stroke="black" stroke-width="0.511867" stroke-miterlimit="10"/>
<path d="M154.298 101.605V102.514" stroke="black" stroke-width="0.511867" stroke-miterlimit="10"/>
<path d="M155 101.291V102.618" stroke="black" stroke-width="0.511867" stroke-miterlimit="10"/>
<path d="M156.404 101.397V102.219" stroke="black" stroke-width="0.511867" stroke-miterlimit="10"/>
<path d="M155.702 101.537V102.482" stroke="black" stroke-width="0.511867" stroke-miterlimit="10"/>
<path d="M157.334 100.508C157.317 100.471 157.347 100.429 157.388 100.434C157.636 100.461 158.31 100.582 158.721 101.126C158.956 101.436 159.036 102 158.689 102.259C158.265 102.574 157.756 102.282 157.679 101.902C157.62 101.613 157.587 101.335 157.537 101.136C157.454 100.805 157.378 100.607 157.334 100.508Z" fill="#28B3F2"/>
<path d="M158.793 102.052C158.363 102.359 157.918 102.121 157.821 101.697C157.821 101.697 157.711 101.197 157.638 100.983C157.521 100.641 157.343 100.451 157.343 100.451C157.343 100.451 157.319 100.475 157.334 100.509C157.378 100.609 157.454 100.806 157.537 101.137C157.587 101.336 157.62 101.614 157.679 101.902C157.756 102.284 158.265 102.575 158.689 102.26C158.807 102.172 158.875 102.048 158.905 101.91C158.878 101.967 158.841 102.016 158.793 102.052V102.052Z" fill="#0277BD"/>
<path d="M158.3 101.085C158.425 101.022 158.661 101.139 158.771 101.451C158.883 101.773 158.664 101.971 158.444 101.724C158.283 101.545 158.173 101.149 158.3 101.085V101.085Z" fill="#81D4FA"/>
<path d="M152.666 100.508C152.683 100.471 152.653 100.429 152.612 100.434C152.364 100.461 151.69 100.582 151.279 101.126C151.044 101.436 150.964 102 151.311 102.259C151.735 102.574 152.244 102.282 152.321 101.902C152.38 101.613 152.413 101.335 152.463 101.136C152.546 100.805 152.622 100.607 152.666 100.508Z" fill="#28B3F2"/>
<path d="M151.207 102.052C151.637 102.359 152.082 102.121 152.179 101.697C152.179 101.697 152.289 101.197 152.362 100.983C152.479 100.641 152.657 100.451 152.657 100.451C152.657 100.451 152.681 100.475 152.666 100.509C152.622 100.609 152.546 100.806 152.463 101.137C152.413 101.336 152.38 101.614 152.321 101.902C152.244 102.284 151.735 102.575 151.311 102.26C151.193 102.172 151.125 102.048 151.095 101.91C151.122 101.967 151.159 102.016 151.207 102.052V102.052Z" fill="#0277BD"/>
<path d="M151.7 101.085C151.575 101.022 151.339 101.139 151.229 101.451C151.117 101.773 151.336 101.971 151.556 101.724C151.717 101.545 151.827 101.149 151.7 101.085V101.085Z" fill="#81D4FA"/>
<path d="M156.877 97.9205C156.774 97.8345 156.777 97.6958 156.837 97.5765C156.981 97.2893 157.326 96.9913 157.448 96.8947C157.648 96.736 157.802 96.6827 157.862 96.938C157.972 97.4099 157.963 98.0505 157.845 98.4037C157.804 98.5284 157.676 98.5944 157.577 98.5084L156.877 97.9205Z" fill="#FFD1D1"/>
<path d="M153.123 97.9205C153.226 97.8345 153.223 97.6958 153.163 97.5765C153.019 97.2893 152.674 96.9913 152.552 96.8947C152.352 96.736 152.198 96.6827 152.138 96.938C152.028 97.4099 152.037 98.0505 152.155 98.4037C152.196 98.5284 152.324 98.5944 152.423 98.5084L153.123 97.9205Z" fill="#FFD1D1"/>
<path d="M169.097 99.4396C169.731 97.7845 169.341 96.518 169.117 96.1548C169.028 96.0108 168.858 95.9708 168.7 96.0201C168.286 96.1508 167.166 97.0653 166.672 98.3451" fill="#FFC022"/>
<path d="M162.903 99.4396C162.269 97.7845 162.659 96.518 162.883 96.1548C162.972 96.0108 163.142 95.9708 163.3 96.0201C163.714 96.1508 164.834 97.0653 165.328 98.3451" fill="#FFC022"/>
<path d="M169.34 100.222C169.22 98.4904 168.029 97.2586 166 97.2586C163.971 97.2586 162.78 98.4904 162.66 100.222C162.59 101.231 162.997 102.089 163.799 102.636C163.799 102.636 164.613 103.294 166 103.312C167.387 103.294 168.201 102.636 168.201 102.636C169.003 102.089 169.41 101.231 169.34 100.222V100.222Z" fill="#FFC022"/>
<path opacity="0.47" d="M165.341 98.5064C165.417 98.5704 165.569 98.561 165.658 98.4584C165.765 98.3337 165.877 97.9138 165.807 97.2646C165.496 97.2759 165.201 97.3206 164.927 97.3959C165.149 97.7598 165.202 98.3877 165.341 98.5064Z" fill="#FF7043"/>
<path opacity="0.47" d="M166.659 98.5064C166.583 98.5704 166.431 98.561 166.342 98.4584C166.235 98.3337 166.123 97.9138 166.193 97.2646C166.504 97.2759 166.799 97.3206 167.073 97.3959C166.851 97.7598 166.798 98.3877 166.659 98.5064Z" fill="#FF7043"/>
<path d="M162.14 99.8262L163.146 100.322" stroke="#9E9E9E" stroke-width="0.767801" stroke-miterlimit="10" stroke-linecap="round"/>
<path d="M162 100.64L163.21 100.85" stroke="#9E9E9E" stroke-width="0.767801" stroke-miterlimit="10" stroke-linecap="round"/>
<path d="M169.86 99.8262L168.854 100.322" stroke="#9E9E9E" stroke-width="0.767801" stroke-miterlimit="10" stroke-linecap="round"/>
<path d="M170 100.64L168.79 100.85" stroke="#9E9E9E" stroke-width="0.767801" stroke-miterlimit="10" stroke-linecap="round"/>
<path d="M163.904 100.189C163.884 100.189 163.864 100.185 163.845 100.176C163.77 100.143 163.736 100.056 163.769 99.9815C163.792 99.9281 164.009 99.4582 164.392 99.4582C164.771 99.4582 165.003 99.9075 165.029 99.9588C165.065 100.032 165.035 100.121 164.962 100.157C164.888 100.193 164.817 100.149 164.764 100.089C164.699 100.017 164.558 99.8562 164.392 99.8562C164.226 99.8562 164.087 100.029 164.04 100.099C164.006 100.151 163.961 100.189 163.904 100.189V100.189Z" fill="black"/>
<path d="M168.096 100.189C168.116 100.189 168.136 100.185 168.155 100.176C168.23 100.143 168.264 100.056 168.231 99.9815C168.208 99.9281 167.991 99.4582 167.608 99.4582C167.229 99.4582 166.997 99.9075 166.971 99.9588C166.935 100.032 166.965 100.121 167.038 100.157C167.112 100.193 167.183 100.149 167.236 100.089C167.301 100.017 167.442 99.8562 167.608 99.8562C167.774 99.8562 167.913 100.029 167.96 100.099C167.994 100.151 168.039 100.189 168.096 100.189V100.189Z" fill="black"/>
<path d="M165.464 100.637C165.461 100.446 165.735 100.354 165.994 100.35C166.253 100.345 166.532 100.43 166.535 100.621C166.539 100.811 166.211 101.063 166.005 101.063C165.799 101.063 165.467 100.827 165.464 100.637Z" fill="black"/>
<path d="M167.737 101.53C167.628 101.419 167.451 101.386 167.287 101.447C167.106 101.515 166.554 101.723 166.273 101.544C166.025 101.387 166.039 101.069 166.039 101.069H165.934C165.934 101.069 165.951 101.416 165.727 101.544C165.437 101.711 164.893 101.515 164.712 101.447C164.549 101.386 164.372 101.419 164.262 101.53C164.159 101.635 164.141 101.785 164.214 101.922C164.369 102.212 164.92 102.702 165.999 102.706C167.079 102.703 167.63 102.212 167.784 101.922C167.858 101.785 167.84 101.635 167.737 101.53V101.53Z" fill="white"/>
<path d="M167.838 101.425C167.722 101.299 167.536 101.262 167.362 101.331C167.171 101.408 166.587 101.643 166.289 101.441C166.027 101.263 166.133 100.987 166.133 100.987H165.867C165.867 100.987 165.948 101.295 165.711 101.441C165.404 101.629 164.829 101.407 164.638 101.331C164.464 101.262 164.278 101.299 164.162 101.425C164.052 101.543 164.033 101.713 164.111 101.868C164.275 102.196 164.858 102.752 166 102.756C167.143 102.752 167.725 102.196 167.889 101.868C167.967 101.713 167.948 101.543 167.838 101.425V101.425ZM167.71 101.779C167.576 102.046 167.047 102.553 166 102.556C164.953 102.552 164.424 102.046 164.29 101.779C164.249 101.697 164.256 101.617 164.308 101.56C164.346 101.519 164.402 101.497 164.462 101.497C164.494 101.497 164.529 101.503 164.563 101.517C164.937 101.667 165.475 101.838 165.822 101.607C165.902 101.554 165.958 101.51 165.998 101.474C165.999 101.475 165.999 101.475 166 101.475C166.001 101.475 166.001 101.474 166.002 101.474C166.042 101.51 166.099 101.554 166.178 101.607C166.525 101.838 167.063 101.667 167.437 101.517C167.471 101.503 167.505 101.497 167.538 101.497C167.598 101.497 167.654 101.519 167.692 101.56C167.744 101.618 167.751 101.697 167.71 101.779Z" fill="black"/>
<path d="M164.596 101.474V102.296" stroke="black" stroke-width="0.511867" stroke-miterlimit="10"/>
<path d="M165.298 101.605V102.514" stroke="black" stroke-width="0.511867" stroke-miterlimit="10"/>
<path d="M166 101.291V102.618" stroke="black" stroke-width="0.511867" stroke-miterlimit="10"/>
<path d="M167.404 101.397V102.219" stroke="black" stroke-width="0.511867" stroke-miterlimit="10"/>
<path d="M166.702 101.537V102.482" stroke="black" stroke-width="0.511867" stroke-miterlimit="10"/>
<path d="M168.334 100.508C168.317 100.471 168.347 100.429 168.388 100.434C168.636 100.461 169.31 100.582 169.721 101.126C169.956 101.436 170.036 102 169.689 102.259C169.265 102.574 168.756 102.282 168.679 101.902C168.62 101.613 168.587 101.335 168.537 101.136C168.454 100.805 168.378 100.607 168.334 100.508Z" fill="#28B3F2"/>
<path d="M169.793 102.052C169.363 102.359 168.918 102.121 168.821 101.697C168.821 101.697 168.711 101.197 168.638 100.983C168.521 100.641 168.343 100.451 168.343 100.451C168.343 100.451 168.319 100.475 168.334 100.509C168.378 100.609 168.454 100.806 168.537 101.137C168.587 101.336 168.62 101.614 168.679 101.902C168.756 102.284 169.265 102.575 169.689 102.26C169.807 102.172 169.875 102.048 169.905 101.91C169.878 101.967 169.841 102.016 169.793 102.052V102.052Z" fill="#0277BD"/>
<path d="M169.3 101.085C169.425 101.022 169.661 101.139 169.771 101.451C169.883 101.773 169.664 101.971 169.444 101.724C169.283 101.545 169.173 101.149 169.3 101.085V101.085Z" fill="#81D4FA"/>
<path d="M163.666 100.508C163.683 100.471 163.653 100.429 163.612 100.434C163.364 100.461 162.69 100.582 162.279 101.126C162.044 101.436 161.964 102 162.311 102.259C162.735 102.574 163.244 102.282 163.321 101.902C163.38 101.613 163.413 101.335 163.463 101.136C163.546 100.805 163.622 100.607 163.666 100.508Z" fill="#28B3F2"/>
<path d="M162.207 102.052C162.637 102.359 163.082 102.121 163.179 101.697C163.179 101.697 163.289 101.197 163.362 100.983C163.479 100.641 163.657 100.451 163.657 100.451C163.657 100.451 163.681 100.475 163.666 100.509C163.622 100.609 163.546 100.806 163.463 101.137C163.413 101.336 163.38 101.614 163.321 101.902C163.244 102.284 162.735 102.575 162.311 102.26C162.193 102.172 162.125 102.048 162.095 101.91C162.122 101.967 162.159 102.016 162.207 102.052V102.052Z" fill="#0277BD"/>
<path d="M162.7 101.085C162.575 101.022 162.339 101.139 162.229 101.451C162.117 101.773 162.336 101.971 162.556 101.724C162.717 101.545 162.827 101.149 162.7 101.085V101.085Z" fill="#81D4FA"/>
<path d="M167.877 97.9205C167.774 97.8345 167.777 97.6958 167.837 97.5765C167.981 97.2893 168.326 96.9913 168.448 96.8947C168.648 96.736 168.802 96.6827 168.862 96.938C168.972 97.4099 168.963 98.0505 168.845 98.4037C168.804 98.5284 168.676 98.5944 168.577 98.5084L167.877 97.9205Z" fill="#FFD1D1"/>
<path d="M164.123 97.9205C164.226 97.8345 164.223 97.6958 164.163 97.5765C164.019 97.2893 163.674 96.9913 163.552 96.8947C163.352 96.736 163.198 96.6827 163.138 96.938C163.028 97.4099 163.037 98.0505 163.155 98.4037C163.196 98.5284 163.324 98.5944 163.423 98.5084L164.123 97.9205Z" fill="#FFD1D1"/>
<path d="M180.097 99.4396C180.731 97.7845 180.341 96.518 180.117 96.1548C180.028 96.0108 179.858 95.9708 179.7 96.0201C179.286 96.1508 178.166 97.0653 177.672 98.3451" fill="#FFC022"/>
<path d="M173.903 99.4396C173.269 97.7845 173.659 96.518 173.883 96.1548C173.972 96.0108 174.142 95.9708 174.3 96.0201C174.714 96.1508 175.834 97.0653 176.328 98.3451" fill="#FFC022"/>
<path d="M180.34 100.222C180.22 98.4904 179.029 97.2586 177 97.2586C174.971 97.2586 173.78 98.4904 173.66 100.222C173.59 101.231 173.997 102.089 174.799 102.636C174.799 102.636 175.613 103.294 177 103.312C178.387 103.294 179.201 102.636 179.201 102.636C180.003 102.089 180.41 101.231 180.34 100.222V100.222Z" fill="#FFC022"/>
<path opacity="0.47" d="M176.341 98.5064C176.417 98.5704 176.569 98.561 176.658 98.4584C176.765 98.3337 176.877 97.9138 176.807 97.2646C176.496 97.2759 176.201 97.3206 175.927 97.3959C176.149 97.7598 176.202 98.3877 176.341 98.5064Z" fill="#FF7043"/>
<path opacity="0.47" d="M177.659 98.5064C177.583 98.5704 177.431 98.561 177.342 98.4584C177.235 98.3337 177.123 97.9138 177.193 97.2646C177.504 97.2759 177.799 97.3206 178.073 97.3959C177.851 97.7598 177.798 98.3877 177.659 98.5064Z" fill="#FF7043"/>
<path d="M173.14 99.8262L174.146 100.322" stroke="#9E9E9E" stroke-width="0.767801" stroke-miterlimit="10" stroke-linecap="round"/>
<path d="M173 100.64L174.21 100.85" stroke="#9E9E9E" stroke-width="0.767801" stroke-miterlimit="10" stroke-linecap="round"/>
<path d="M180.86 99.8262L179.854 100.322" stroke="#9E9E9E" stroke-width="0.767801" stroke-miterlimit="10" stroke-linecap="round"/>
<path d="M181 100.64L179.79 100.85" stroke="#9E9E9E" stroke-width="0.767801" stroke-miterlimit="10" stroke-linecap="round"/>
<path d="M174.904 100.189C174.884 100.189 174.864 100.185 174.845 100.176C174.77 100.143 174.736 100.056 174.769 99.9815C174.792 99.9281 175.009 99.4582 175.392 99.4582C175.771 99.4582 176.003 99.9075 176.029 99.9588C176.065 100.032 176.035 100.121 175.962 100.157C175.888 100.193 175.817 100.149 175.764 100.089C175.699 100.017 175.558 99.8562 175.392 99.8562C175.226 99.8562 175.087 100.029 175.04 100.099C175.006 100.151 174.961 100.189 174.904 100.189V100.189Z" fill="black"/>
<path d="M179.096 100.189C179.116 100.189 179.136 100.185 179.155 100.176C179.23 100.143 179.264 100.056 179.231 99.9815C179.208 99.9281 178.991 99.4582 178.608 99.4582C178.229 99.4582 177.997 99.9075 177.971 99.9588C177.935 100.032 177.965 100.121 178.038 100.157C178.112 100.193 178.183 100.149 178.236 100.089C178.301 100.017 178.442 99.8562 178.608 99.8562C178.774 99.8562 178.913 100.029 178.96 100.099C178.994 100.151 179.039 100.189 179.096 100.189V100.189Z" fill="black"/>
<path d="M176.464 100.637C176.461 100.446 176.735 100.354 176.994 100.35C177.253 100.345 177.532 100.43 177.535 100.621C177.539 100.811 177.211 101.063 177.005 101.063C176.799 101.063 176.467 100.827 176.464 100.637Z" fill="black"/>
<path d="M178.737 101.53C178.628 101.419 178.451 101.386 178.287 101.447C178.106 101.515 177.554 101.723 177.273 101.544C177.025 101.387 177.039 101.069 177.039 101.069H176.934C176.934 101.069 176.951 101.416 176.727 101.544C176.437 101.711 175.893 101.515 175.712 101.447C175.549 101.386 175.372 101.419 175.262 101.53C175.159 101.635 175.141 101.785 175.214 101.922C175.369 102.212 175.92 102.702 176.999 102.706C178.079 102.703 178.63 102.212 178.784 101.922C178.858 101.785 178.84 101.635 178.737 101.53V101.53Z" fill="white"/>
<path d="M178.838 101.425C178.722 101.299 178.536 101.262 178.362 101.331C178.171 101.408 177.587 101.643 177.289 101.441C177.027 101.263 177.133 100.987 177.133 100.987H176.867C176.867 100.987 176.948 101.295 176.711 101.441C176.404 101.629 175.829 101.407 175.638 101.331C175.464 101.262 175.278 101.299 175.162 101.425C175.052 101.543 175.033 101.713 175.111 101.868C175.275 102.196 175.858 102.752 177 102.756C178.143 102.752 178.725 102.196 178.889 101.868C178.967 101.713 178.948 101.543 178.838 101.425V101.425ZM178.71 101.779C178.576 102.046 178.047 102.553 177 102.556C175.953 102.552 175.424 102.046 175.29 101.779C175.249 101.697 175.256 101.617 175.308 101.56C175.346 101.519 175.402 101.497 175.462 101.497C175.494 101.497 175.529 101.503 175.563 101.517C175.937 101.667 176.475 101.838 176.822 101.607C176.902 101.554 176.958 101.51 176.998 101.474C176.999 101.475 176.999 101.475 177 101.475C177.001 101.475 177.001 101.474 177.002 101.474C177.042 101.51 177.099 101.554 177.178 101.607C177.525 101.838 178.063 101.667 178.437 101.517C178.471 101.503 178.505 101.497 178.538 101.497C178.598 101.497 178.654 101.519 178.692 101.56C178.744 101.618 178.751 101.697 178.71 101.779Z" fill="black"/>
<path d="M175.596 101.474V102.296" stroke="black" stroke-width="0.511867" stroke-miterlimit="10"/>
<path d="M176.298 101.605V102.514" stroke="black" stroke-width="0.511867" stroke-miterlimit="10"/>
<path d="M177 101.291V102.618" stroke="black" stroke-width="0.511867" stroke-miterlimit="10"/>
<path d="M178.404 101.397V102.219" stroke="black" stroke-width="0.511867" stroke-miterlimit="10"/>
<path d="M177.702 101.537V102.482" stroke="black" stroke-width="0.511867" stroke-miterlimit="10"/>
<path d="M179.334 100.508C179.317 100.471 179.347 100.429 179.388 100.434C179.636 100.461 180.31 100.582 180.721 101.126C180.956 101.436 181.036 102 180.689 102.259C180.265 102.574 179.756 102.282 179.679 101.902C179.62 101.613 179.587 101.335 179.537 101.136C179.454 100.805 179.378 100.607 179.334 100.508Z" fill="#28B3F2"/>
<path d="M180.793 102.052C180.363 102.359 179.918 102.121 179.821 101.697C179.821 101.697 179.711 101.197 179.638 100.983C179.521 100.641 179.343 100.451 179.343 100.451C179.343 100.451 179.319 100.475 179.334 100.509C179.378 100.609 179.454 100.806 179.537 101.137C179.587 101.336 179.62 101.614 179.679 101.902C179.756 102.284 180.265 102.575 180.689 102.26C180.807 102.172 180.875 102.048 180.905 101.91C180.878 101.967 180.841 102.016 180.793 102.052V102.052Z" fill="#0277BD"/>
<path d="M180.3 101.085C180.425 101.022 180.661 101.139 180.771 101.451C180.883 101.773 180.664 101.971 180.444 101.724C180.283 101.545 180.173 101.149 180.3 101.085V101.085Z" fill="#81D4FA"/>
<path d="M174.666 100.508C174.683 100.471 174.653 100.429 174.612 100.434C174.364 100.461 173.69 100.582 173.279 101.126C173.044 101.436 172.964 102 173.311 102.259C173.735 102.574 174.244 102.282 174.321 101.902C174.38 101.613 174.413 101.335 174.463 101.136C174.546 100.805 174.622 100.607 174.666 100.508Z" fill="#28B3F2"/>
<path d="M173.207 102.052C173.637 102.359 174.082 102.121 174.179 101.697C174.179 101.697 174.289 101.197 174.362 100.983C174.479 100.641 174.657 100.451 174.657 100.451C174.657 100.451 174.681 100.475 174.666 100.509C174.622 100.609 174.546 100.806 174.463 101.137C174.413 101.336 174.38 101.614 174.321 101.902C174.244 102.284 173.735 102.575 173.311 102.26C173.193 102.172 173.125 102.048 173.095 101.91C173.122 101.967 173.159 102.016 173.207 102.052V102.052Z" fill="#0277BD"/>
<path d="M173.7 101.085C173.575 101.022 173.339 101.139 173.229 101.451C173.117 101.773 173.336 101.971 173.556 101.724C173.717 101.545 173.827 101.149 173.7 101.085V101.085Z" fill="#81D4FA"/>
<path d="M178.877 97.9205C178.774 97.8345 178.777 97.6958 178.837 97.5765C178.981 97.2893 179.326 96.9913 179.448 96.8947C179.648 96.736 179.802 96.6827 179.862 96.938C179.972 97.4099 179.963 98.0505 179.845 98.4037C179.804 98.5284 179.676 98.5944 179.577 98.5084L178.877 97.9205Z" fill="#FFD1D1"/>
<path d="M175.123 97.9205C175.226 97.8345 175.223 97.6958 175.163 97.5765C175.019 97.2893 174.674 96.9913 174.552 96.8947C174.352 96.736 174.198 96.6827 174.138 96.938C174.028 97.4099 174.037 98.0505 174.155 98.4037C174.196 98.5284 174.324 98.5944 174.423 98.5084L175.123 97.9205Z" fill="#FFD1D1"/>
<rect width="72" height="20" fill="#282A36"/>
<rect width="72" height="1" fill="#FF79C6"/>
<path d="M72 0H300V20H73C72.4477 20 72 19.5523 72 19V0Z" fill="#23252F"/>
<path d="M24.5859 13V7.41406H25.3086V9.34375C25.6576 9.04688 26.0833 8.89844 26.5859 8.89844C27.6094 8.89844 28.1211 9.40755 28.1211 10.4258V13H27.3984V10.4141C27.3984 9.80469 27.0951 9.5 26.4883 9.5C26.0742 9.5 25.681 9.67318 25.3086 10.0195V13H24.5859ZM30.9883 8.89844C32.1549 8.89844 32.7383 9.47526 32.7383 10.6289C32.7383 10.793 32.7266 10.9688 32.7031 11.1562H29.8242C29.8242 11.9948 30.3138 12.4141 31.293 12.4141C31.7591 12.4141 32.1732 12.362 32.5352 12.2578V12.8438C32.1732 12.9479 31.7331 13 31.2148 13C29.806 13 29.1016 12.3008 29.1016 10.9023C29.1016 9.56641 29.7305 8.89844 30.9883 8.89844ZM29.8242 10.5547H32.043C32.0273 9.83594 31.6758 9.47656 30.9883 9.47656C30.2591 9.47656 29.8711 9.83594 29.8242 10.5547ZM34.4727 7.41406V13H33.75V7.41406H34.4727ZM36.4492 7.41406V13H35.7266V7.41406H36.4492ZM38.1914 10.9336C38.1914 11.9206 38.6016 12.4141 39.4219 12.4141C40.2422 12.4141 40.6523 11.9206 40.6523 10.9336C40.6523 9.96745 40.2422 9.48438 39.4219 9.48438C38.6016 9.48438 38.1914 9.96745 38.1914 10.9336ZM37.4688 10.9492C37.4688 9.58203 38.1198 8.89844 39.4219 8.89844C40.724 8.89844 41.375 9.58203 41.375 10.9492C41.375 12.3138 40.724 12.9961 39.4219 12.9961C38.125 12.9961 37.474 12.3138 37.4688 10.9492ZM42.8789 12.2773V13H42.1562V12.2773H42.8789ZM44.6602 8.89844V12.6875C44.6602 13.5156 44.4583 14.138 44.0547 14.5547L43.4492 14.1445C43.7747 13.793 43.9375 13.3073 43.9375 12.6875V8.89844H44.6602ZM44.6602 7.41406V8.09766H43.9375V7.41406H44.6602ZM45.875 12.8047V12.1797C46.3568 12.3359 46.8438 12.4141 47.3359 12.4141C47.9896 12.4141 48.3164 12.2188 48.3164 11.8281C48.3164 11.4635 48.0885 11.2812 47.6328 11.2812H47.0469C46.1615 11.2812 45.7188 10.8776 45.7188 10.0703C45.7188 9.28906 46.2878 8.89844 47.4258 8.89844C47.9154 8.89844 48.401 8.96354 48.8828 9.09375V9.71875C48.401 9.5625 47.9154 9.48438 47.4258 9.48438C46.7435 9.48438 46.4023 9.67969 46.4023 10.0703C46.4023 10.4349 46.6172 10.6172 47.0469 10.6172H47.6328C48.5703 10.6172 49.0391 11.0208 49.0391 11.8281C49.0391 12.6094 48.4714 13 47.3359 13C46.8438 13 46.3568 12.9349 45.875 12.8047Z" fill="#6272A4"/>
<path d="M8.5 8C8.5 7.60218 8.65804 7.22064 8.93934 6.93934C9.22064 6.65804 9.60218 6.5 10 6.5H14C14.3978 6.5 14.7794 6.65804 15.0607 6.93934C15.342 7.22064 15.5 7.60218 15.5 8V12C15.5 12.3978 15.342 12.7794 15.0607 13.0607C14.7794 13.342 14.3978 13.5 14 13.5H10C9.60218 13.5 9.22064 13.342 8.93934 13.0607C8.65804 12.7794 8.5 12.3978 8.5 12V8ZM12.125 8.75C12.0255 8.75 11.9302 8.78951 11.8598 8.85983C11.7895 8.93016 11.75 9.02554 11.75 9.125V11.625C11.75 11.6582 11.7368 11.6899 11.7134 11.7134C11.6899 11.7368 11.6582 11.75 11.625 11.75H11.125C11.0255 11.75 10.9302 11.7895 10.8598 11.8598C10.7895 11.9302 10.75 12.0255 10.75 12.125C10.75 12.2245 10.7895 12.3198 10.8598 12.3902C10.9302 12.4605 11.0255 12.5 11.125 12.5H11.625C11.8571 12.5 12.0796 12.4078 12.2437 12.2437C12.4078 12.0796 12.5 11.8571 12.5 11.625V9.125C12.5 9.02554 12.4605 8.93016 12.3902 8.85983C12.3198 8.78951 12.2245 8.75 12.125 8.75ZM12.75 9.625V10.125C12.75 10.608 13.142 11 13.625 11H13.875C13.9082 11 13.9399 11.0132 13.9634 11.0366C13.9868 11.0601 14 11.0918 14 11.125V11.625C14 11.6582 13.9868 11.6899 13.9634 11.7134C13.9399 11.7368 13.9082 11.75 13.875 11.75H13.125C13.0255 11.75 12.9302 11.7895 12.8598 11.8598C12.7895 11.9302 12.75 12.0255 12.75 12.125C12.75 12.2245 12.7895 12.3198 12.8598 12.3902C12.9302 12.4605 13.0255 12.5 13.125 12.5H13.875C14.1071 12.5 14.3296 12.4078 14.4937 12.2437C14.6578 12.0796 14.75 11.8571 14.75 11.625V11.125C14.75 10.8929 14.6578 10.6704 14.4937 10.5063C14.3296 10.3422 14.1071 10.25 13.875 10.25H13.625C13.5918 10.25 13.5601 10.2368 13.5366 10.2134C13.5132 10.1899 13.5 10.1582 13.5 10.125V9.625C13.5 9.59185 13.5132 9.56005 13.5366 9.53661C13.5601 9.51317 13.5918 9.5 13.625 9.5H14.375C14.4745 9.5 14.5698 9.46049 14.6402 9.39016C14.7105 9.31984 14.75 9.22446 14.75 9.125C14.75 9.02554 14.7105 8.93016 14.6402 8.85983C14.5698 8.78951 14.4745 8.75 14.375 8.75H13.625C13.3929 8.75 13.1704 8.84219 13.0063 9.00628C12.8422 9.17038 12.75 9.39294 12.75 9.625V9.625Z" fill="#FFC022" fill-opacity="0.94"/>
<g clip-path="url(#clip1_1_2)">
<path d="M61.3133 11L63.1556 9.15778C63.192 9.11527 63.211 9.06059 63.2088 9.00466C63.2067 8.94873 63.1835 8.89568 63.1439 8.8561C63.1043 8.81652 63.0513 8.79334 62.9953 8.79118C62.9394 8.78902 62.8847 8.80804 62.8422 8.84445L61 10.6867L59.1578 8.84222C59.1159 8.80038 59.0592 8.77687 59 8.77687C58.9408 8.77687 58.8841 8.80038 58.8422 8.84222C58.8004 8.88407 58.7769 8.94082 58.7769 9C58.7769 9.05918 58.8004 9.11593 58.8422 9.15778L60.6867 11L58.8422 12.8422C58.819 12.8621 58.8001 12.8867 58.7867 12.9142C58.7734 12.9418 58.7659 12.9718 58.7647 13.0024C58.7635 13.033 58.7687 13.0636 58.7799 13.0921C58.791 13.1206 58.808 13.1465 58.8296 13.1681C58.8513 13.1898 58.8772 13.2067 58.9057 13.2179C58.9342 13.2291 58.9647 13.2343 58.9953 13.2331C59.026 13.2319 59.056 13.2244 59.0836 13.2111C59.1111 13.1977 59.1356 13.1788 59.1556 13.1556L61 11.3133L62.8422 13.1556C62.8847 13.192 62.9394 13.211 62.9953 13.2088C63.0513 13.2067 63.1043 13.1835 63.1439 13.1439C63.1835 13.1043 63.2067 13.0513 63.2088 12.9953C63.211 12.9394 63.192 12.8847 63.1556 12.8422L61.3133 11Z" fill="#F8F8F2"/>
</g>
</g>
<defs>
<filter id="filter0_f_1_2" x="45" y="12" width="211" height="117" filterUnits="userSpaceOnUse" color-interpolation-filters="sRGB">
<feFlood flood-opacity="0" result="BackgroundImageFix"/>
<feBlend mode="normal" in="SourceGraphic" in2="BackgroundImageFix" result="shape"/>
<feGaussianBlur stdDeviation="1" result="effect1_foregroundBlur_1_2"/>
</filter>
<linearGradient id="paint0_linear_1_2" x1="47" y1="21.91" x2="259.337" y2="105.539" gradientUnits="userSpaceOnUse">
<stop stop-color="#BF3D3D"/>
<stop offset="0.489583" stop-color="#FF79C6" stop-opacity="0.502645"/>
<stop offset="0.984375" stop-color="#BD93F9" stop-opacity="0.21"/>
</linearGradient>
<radialGradient id="paint1_radial_1_2" cx="0" cy="0" r="1" gradientUnits="userSpaceOnUse" gradientTransform="translate(83.6943 83.4649) rotate(-45) scale(6.58517)">
<stop offset="0.3533" stop-color="#F9DDBD"/>
<stop offset="0.8723" stop-color="#FFD29C"/>
</radialGradient>
<radialGradient id="paint2_radial_1_2" cx="0" cy="0" r="1" gradientUnits="userSpaceOnUse" gradientTransform="translate(74.6943 98.4649) rotate(-45) scale(6.58517)">
<stop offset="0.3533" stop-color="#F9DDBD"/>
<stop offset="0.8723" stop-color="#FFD29C"/>
</radialGradient>
<clipPath id="clip0_1_2">
<rect width="300" height="120" rx="3" fill="white"/>
</clipPath>
<clipPath id="clip1_1_2">
<rect width="8" height="8" fill="white" transform="translate(57 7)"/>
</clipPath>
</defs>
</svg>
